<?xml version="1.0" standalone="no"?>
<!DOCTYPE svg PUBLIC "-//W3C//DTD SVG 20010904//EN"
 "http://www.w3.org/TR/2001/REC-SVG-20010904/DTD/svg10.dtd">
<svg version="1.0" xmlns="http://www.w3.org/2000/svg"
 width="1184.000000pt" height="1184.000000pt" viewBox="0 0 1184.000000 1184.000000"
 preserveAspectRatio="xMidYMid meet">
<metadata>
Created by potrace 1.14, written by Peter Selinger 2001-2017
</metadata>
<g transform="translate(0.000000,1184.000000) scale(0.100000,-0.100000)"
fill="#000000" stroke="none">
<path d="M5680 9422 c-68 -26 -114 -57 -163 -113 -48 -54 -107 -159 -133 -236
-9 -27 -21 -59 -27 -73 -5 -14 -12 -34 -14 -44 -2 -11 -10 -39 -18 -62 -8 -24
-16 -53 -19 -66 -3 -13 -16 -73 -30 -134 -14 -62 -28 -128 -32 -149 -3 -21 -8
-47 -10 -59 -8 -36 -33 -179 -38 -216 -3 -19 -7 -44 -9 -55 -3 -11 -8 -42 -11
-70 -10 -77 -16 -119 -21 -144 -2 -13 -7 -49 -10 -80 -4 -31 -9 -69 -11 -86
-3 -16 -7 -50 -10 -75 -2 -25 -6 -61 -9 -80 -3 -19 -7 -57 -10 -85 -4 -27 -8
-66 -10 -85 -3 -19 -7 -57 -10 -85 -7 -63 -15 -141 -20 -180 -2 -16 -6 -57
-10 -90 -4 -33 -9 -76 -11 -95 -3 -19 -7 -67 -9 -107 -3 -40 -7 -85 -10 -100
-2 -16 -7 -58 -9 -93 -3 -36 -8 -89 -11 -118 -3 -28 -7 -73 -10 -99 -2 -27 -7
-79 -10 -118 -3 -38 -8 -92 -11 -120 -3 -27 -7 -75 -9 -105 -7 -80 -14 -158
-19 -215 -3 -27 -8 -77 -10 -110 -3 -33 -8 -89 -11 -125 -3 -36 -7 -85 -10
-110 -5 -54 -17 -182 -20 -230 -2 -32 -11 -134 -20 -220 -2 -19 -6 -71 -10
-115 -4 -44 -9 -100 -11 -125 -3 -25 -6 -70 -9 -100 -2 -30 -6 -75 -9 -100 -6
-46 -13 -113 -21 -210 -6 -62 -14 -138 -19 -190 -2 -19 -7 -70 -11 -112 -3
-42 -8 -87 -10 -98 -2 -12 -7 -56 -11 -98 -3 -43 -8 -88 -9 -102 -6 -52 -26
-206 -30 -240 -3 -19 -8 -57 -11 -85 -4 -27 -8 -59 -9 -70 -2 -11 -4 -31 -4
-44 -1 -13 -4 -22 -7 -18 -6 6 -7 18 -19 177 -3 47 -8 108 -10 135 -5 48 -12
171 -20 335 -2 41 -6 125 -9 185 -16 337 -25 559 -32 775 -2 91 -6 208 -8 260
-3 52 -7 187 -11 300 -3 113 -8 255 -10 315 -2 61 -7 184 -10 275 -3 91 -8
203 -10 250 -6 101 -14 270 -20 396 -2 50 -7 124 -10 165 -3 41 -8 106 -10
144 -3 39 -7 97 -10 130 -13 137 -16 161 -20 214 -2 31 -6 67 -9 81 -5 29 -17
111 -22 155 -15 112 -65 306 -101 384 -61 135 -162 212 -284 217 -159 7 -285
-98 -370 -311 -7 -16 -13 -32 -14 -35 -2 -11 -27 -86 -32 -100 -3 -8 -7 -20
-9 -27 -1 -7 -10 -43 -19 -80 -10 -37 -19 -77 -21 -88 -2 -11 -12 -67 -24
-125 -12 -58 -23 -121 -26 -140 -2 -19 -9 -64 -15 -100 -6 -36 -12 -74 -13
-85 -2 -11 -6 -33 -9 -50 -3 -16 -9 -52 -12 -80 -8 -77 -16 -138 -21 -165 -3
-14 -7 -45 -9 -70 -2 -25 -7 -61 -9 -80 -3 -19 -8 -60 -11 -90 -4 -30 -9 -68
-11 -84 -3 -16 -7 -54 -9 -85 -3 -31 -7 -73 -10 -93 -13 -98 -26 -213 -31
-266 -2 -25 -6 -61 -8 -81 -3 -20 -8 -65 -12 -101 -4 -36 -8 -76 -9 -90 -2
-14 -4 -25 -4 -25 -1 0 -4 -27 -6 -60 -2 -33 -7 -76 -9 -95 -6 -37 -16 -125
-21 -175 -12 -121 -16 -153 -20 -175 -2 -14 -7 -52 -10 -85 -4 -33 -9 -73 -11
-90 -3 -16 -8 -48 -10 -70 -3 -22 -7 -51 -9 -65 -1 -14 -6 -56 -10 -95 -4 -38
-9 -73 -11 -76 -2 -4 -6 -23 -9 -43 -3 -20 -8 -53 -11 -73 -3 -21 -7 -51 -10
-68 -2 -16 -6 -39 -8 -50 -2 -11 -7 -44 -11 -73 -8 -54 -19 -76 -21 -39 -1 19
-6 86 -19 257 -2 25 -6 86 -9 135 -3 50 -8 128 -11 175 -3 47 -8 128 -10 180
-2 52 -7 136 -9 185 -3 50 -8 135 -11 190 -2 55 -7 127 -10 160 -2 33 -7 96
-10 140 -3 44 -8 98 -10 120 -3 22 -7 69 -10 105 -2 36 -7 81 -9 100 -3 19 -7
51 -10 70 -2 19 -7 55 -11 80 -3 25 -8 59 -10 75 -2 17 -4 30 -5 30 -2 0 -4
11 -25 110 -36 170 -101 316 -175 395 -36 39 -132 98 -172 106 -83 17 -159 9
-263 -29 -51 -19 -154 -108 -210 -183 -60 -80 -132 -220 -189 -369 -21 -55
-39 -104 -41 -110 -1 -5 -5 -17 -8 -25 -11 -28 -97 -319 -178 -600 -10 -36
-25 -90 -34 -120 -9 -30 -17 -62 -20 -70 -9 -37 -95 -289 -111 -325 -10 -22
-18 -42 -19 -45 -5 -23 -48 -91 -57 -88 -9 3 -28 37 -155 281 -26 48 -50 87
-55 87 -4 0 -8 4 -8 9 0 21 -113 170 -168 221 -68 64 -111 100 -120 100 -3 0
-15 8 -26 19 -62 55 -305 152 -416 166 -30 3 -73 11 -95 17 -22 5 -98 11 -170
11 -107 1 -136 -1 -166 -16 -91 -45 -145 -140 -136 -237 5 -51 26 -110 39
-110 5 0 8 -5 8 -11 0 -6 6 -16 13 -23 23 -23 95 -65 101 -59 3 4 6 2 6 -3 0
-5 15 -10 33 -10 119 -5 229 -15 272 -25 187 -41 304 -115 394 -248 14 -20 28
-37 33 -39 4 -2 8 -10 8 -17 0 -7 4 -15 8 -17 5 -1 33 -52 64 -113 131 -257
151 -288 233 -367 142 -136 344 -168 513 -80 45 23 137 110 173 162 73 106
149 275 215 480 14 41 27 82 31 90 8 18 7 16 17 65 4 22 11 45 16 50 4 6 11
28 15 50 9 44 11 53 15 60 1 3 4 10 5 15 1 6 3 11 5 13 1 1 3 9 5 17 4 23 36
133 42 150 3 8 7 20 8 25 6 23 30 105 37 125 3 8 21 67 39 130 18 63 39 127
46 142 7 15 13 29 12 30 -3 5 23 82 31 93 5 6 8 12 8 15 1 9 23 65 43 108 30
60 37 51 54 -73 4 -22 8 -48 11 -58 5 -17 8 -37 19 -124 10 -80 14 -128 20
-190 3 -35 7 -89 10 -120 13 -147 16 -197 30 -463 2 -41 6 -113 9 -160 3 -47
8 -137 11 -200 3 -63 8 -149 11 -190 2 -41 7 -104 9 -140 12 -191 15 -228 31
-360 3 -25 7 -61 9 -80 6 -67 44 -277 58 -321 8 -24 24 -74 35 -110 69 -220
233 -339 422 -306 76 13 196 105 236 181 41 77 62 125 79 176 10 30 20 62 23
70 3 8 6 20 8 25 54 210 59 230 68 289 3 19 10 55 15 78 5 24 12 63 15 88 3
25 8 56 11 70 2 13 7 42 10 65 6 42 11 69 19 120 3 17 8 53 11 80 3 28 8 61
10 75 2 14 7 49 10 79 4 30 9 63 11 75 3 12 7 46 9 76 3 30 8 71 10 91 3 20 8
59 10 85 3 27 7 60 10 74 4 26 11 86 20 180 2 30 7 66 9 80 2 14 7 54 11 90 3
36 9 85 12 110 3 25 7 63 9 85 2 22 5 60 8 85 6 52 14 125 21 190 3 25 8 65
11 90 3 25 8 61 9 80 5 54 14 141 20 180 3 19 8 53 10 75 3 22 7 60 10 85 3
25 7 63 10 85 2 22 5 41 6 43 1 1 2 10 3 20 4 33 17 137 22 167 8 43 13 83 21
138 5 43 18 65 21 35 0 -7 3 -49 6 -93 3 -44 7 -105 10 -135 3 -30 8 -100 11
-155 2 -55 7 -147 10 -205 13 -236 22 -445 30 -690 3 -96 8 -233 11 -305 2
-71 6 -195 9 -275 5 -177 14 -424 20 -585 3 -66 7 -183 10 -260 3 -77 7 -189
10 -250 6 -107 8 -138 20 -375 3 -63 7 -142 10 -175 2 -33 7 -94 9 -135 7 -92
14 -182 20 -235 3 -22 8 -69 11 -105 3 -36 8 -83 11 -105 3 -22 8 -56 10 -75
7 -63 32 -209 53 -305 45 -215 134 -363 251 -422 45 -22 68 -27 130 -27 66 0
82 3 135 33 74 41 121 94 169 191 38 76 99 291 125 435 6 33 13 71 16 85 7 43
45 283 51 325 3 22 7 51 9 65 3 14 6 43 9 65 2 22 8 67 12 100 3 33 8 68 10
77 1 9 6 48 10 85 4 37 8 79 10 93 1 14 5 50 8 80 3 30 8 78 11 105 3 28 8 70
10 95 2 25 7 68 9 95 18 174 27 266 40 415 7 72 13 142 21 223 3 28 7 84 10
122 3 39 8 90 10 115 8 71 14 139 20 215 3 39 7 90 10 115 3 25 7 70 10 100 7
88 15 181 20 240 3 30 7 84 11 120 3 36 7 81 9 100 6 73 16 196 19 225 8 70
19 193 22 235 1 25 3 45 4 45 1 0 3 23 5 50 2 28 7 75 10 105 4 30 8 73 10 95
10 109 16 170 30 305 12 111 16 147 20 170 2 14 7 54 10 90 3 36 8 76 10 90 2
14 6 50 9 80 3 30 8 64 10 75 2 11 7 51 11 88 3 37 8 76 10 86 2 10 6 42 10
71 4 29 8 60 10 69 1 9 6 39 10 66 4 28 9 61 11 75 2 14 6 43 8 65 3 22 8 51
11 65 9 46 17 95 19 115 1 11 5 29 9 40 3 11 8 37 11 57 5 32 21 106 31 143 1
6 6 29 10 53 7 41 21 64 23 39 2 -26 14 -84 22 -112 5 -16 9 -39 9 -50 0 -11
2 -33 5 -50 4 -16 9 -42 12 -57 3 -15 7 -42 10 -60 2 -18 6 -50 9 -70 3 -21 7
-57 10 -80 3 -24 10 -77 15 -118 5 -41 12 -100 15 -130 3 -30 8 -73 10 -95 9
-73 17 -159 21 -215 2 -30 5 -73 8 -95 2 -22 7 -80 11 -130 6 -92 10 -141 20
-255 3 -36 8 -99 10 -140 3 -41 7 -106 10 -145 4 -67 9 -132 20 -315 3 -47 7
-123 10 -170 6 -124 16 -298 20 -350 2 -25 6 -101 10 -170 3 -69 8 -156 10
-195 2 -38 6 -113 9 -165 3 -52 8 -142 12 -200 3 -58 8 -134 9 -170 2 -36 6
-112 10 -170 3 -58 8 -141 10 -185 3 -44 7 -115 10 -157 3 -43 8 -115 10 -160
3 -46 7 -114 10 -153 3 -38 7 -104 9 -145 3 -41 8 -108 11 -147 4 -40 8 -94
10 -120 2 -27 7 -88 11 -138 4 -49 8 -109 8 -132 1 -24 3 -43 7 -43 3 0 5 -10
5 -22 1 -30 12 -143 18 -188 5 -35 15 -116 21 -180 2 -19 6 -48 9 -65 4 -16 9
-46 12 -65 5 -34 18 -109 29 -160 69 -344 185 -495 380 -495 57 0 81 6 128 29
80 40 156 130 194 231 6 17 15 39 19 50 4 11 8 22 8 25 1 3 4 10 7 15 4 6 10
26 15 45 4 19 9 40 11 45 10 38 45 185 48 205 2 14 8 46 14 72 6 26 13 66 16
90 6 47 13 83 15 83 1 0 3 11 4 25 7 68 18 156 21 160 2 3 6 34 10 70 3 36 8
72 10 80 2 8 7 44 11 80 10 99 11 111 18 160 3 25 8 71 11 102 3 32 7 84 10
115 3 32 8 76 10 98 11 98 14 124 20 195 4 41 9 93 11 115 2 22 6 69 9 105 2
36 5 65 6 65 0 0 2 18 3 40 2 22 6 72 10 110 4 39 9 97 11 130 3 33 7 85 10
115 2 30 7 87 10 125 3 39 7 90 10 115 2 25 7 81 10 125 8 103 13 166 19 235
3 30 8 91 11 135 6 85 10 137 21 250 6 72 8 93 18 230 4 44 8 98 11 120 4 35
10 106 20 215 2 19 6 67 9 105 3 39 8 93 11 120 3 28 8 70 10 95 6 72 15 162
20 200 3 19 7 60 10 90 3 30 8 66 10 80 3 14 7 53 10 86 7 72 12 105 20 112 3
3 5 -8 6 -24 0 -16 2 -38 4 -49 2 -11 6 -42 9 -70 4 -27 8 -61 11 -74 2 -13 7
-49 10 -80 3 -31 8 -76 11 -101 3 -25 8 -61 10 -80 3 -33 8 -77 18 -175 14
-123 18 -165 22 -210 2 -27 7 -66 10 -85 3 -19 7 -60 9 -90 4 -52 11 -125 20
-215 3 -22 7 -69 10 -105 7 -81 11 -116 20 -205 4 -38 8 -86 10 -105 3 -40 14
-146 21 -205 2 -22 7 -65 9 -95 3 -30 7 -71 9 -90 2 -19 7 -64 10 -100 4 -36
8 -76 10 -90 3 -14 7 -55 11 -92 3 -37 8 -77 10 -90 2 -13 7 -52 10 -88 3 -36
8 -76 10 -90 7 -45 13 -94 20 -145 7 -51 42 -289 50 -335 10 -60 47 -228 57
-265 6 -22 12 -47 13 -55 6 -35 49 -149 81 -212 143 -285 466 -279 622 11 18
33 32 67 32 75 0 9 5 16 12 16 6 0 9 3 5 6 -3 3 5 34 18 69 14 35 27 74 29 87
3 13 12 50 21 83 14 55 22 86 30 125 2 8 4 15 5 15 1 0 3 15 6 34 4 35 8 57
19 101 3 14 8 43 11 65 3 22 10 60 15 84 5 24 8 46 5 48 -3 3 -1 15 3 27 5 12
12 44 15 71 4 28 9 64 11 80 3 17 7 46 10 65 2 19 7 50 9 68 12 80 17 112 27
187 5 44 12 98 15 120 3 22 6 54 8 70 2 17 7 55 10 86 4 31 8 66 11 78 2 13 7
49 10 80 4 31 8 63 10 71 3 8 7 38 10 65 3 28 7 59 9 70 2 12 7 48 11 80 4 33
9 69 11 80 2 10 6 37 9 60 3 22 13 81 21 130 8 50 17 106 20 125 3 19 10 55
16 80 5 25 11 54 14 65 2 11 7 34 11 50 4 17 7 33 7 37 2 17 16 19 16 2 0 -11
4 -24 8 -30 17 -19 67 -163 162 -474 18 -58 41 -132 52 -165 11 -33 21 -67 23
-75 4 -17 54 -178 62 -200 3 -8 7 -19 8 -25 4 -15 45 -127 55 -150 5 -11 23
-51 40 -90 111 -250 259 -369 438 -352 194 19 324 136 482 432 30 55 63 117
74 138 11 21 34 53 51 70 31 32 32 32 126 31 52 -1 103 -2 115 -3 20 -1 20 -3
20 -477 l-1 -475 20 23 c11 13 31 39 45 57 14 18 30 38 35 44 6 7 38 46 70 87
33 41 62 77 65 80 3 3 21 25 40 50 19 25 58 74 87 110 30 36 64 78 76 93 12
15 27 33 32 40 6 7 35 44 65 82 30 39 57 72 60 75 3 3 21 25 40 50 19 25 37
47 40 50 4 3 40 48 80 100 41 52 77 97 80 100 3 3 31 38 63 78 58 73 59 74 40
95 -34 40 -38 45 -60 73 -28 36 -129 162 -152 189 -9 11 -30 38 -46 60 -17 21
-37 46 -45 55 -8 9 -26 31 -40 50 -14 19 -40 51 -59 72 -18 21 -30 38 -25 38
4 0 1 6 -8 13 -15 11 -48 50 -108 127 -14 18 -50 63 -80 100 -30 37 -65 81
-77 96 -23 30 -122 153 -151 189 -10 11 -30 37 -45 58 -15 20 -31 37 -35 37
-4 0 -7 -212 -6 -470 0 -385 -2 -470 -13 -466 -7 3 -13 2 -13 -2 0 -4 -71 -7
-158 -8 -148 -1 -161 -2 -227 -29 -38 -16 -75 -33 -81 -39 -6 -6 -31 -27 -55
-46 -58 -48 -84 -76 -122 -135 -17 -27 -34 -52 -38 -55 -3 -3 -25 -41 -49 -85
-23 -44 -47 -86 -52 -92 -6 -7 -7 -13 -4 -13 4 0 -2 -13 -13 -29 -12 -16 -21
-33 -21 -38 0 -5 -5 -14 -12 -21 -13 -13 -27 9 -48 75 -7 21 -16 43 -20 48 -7
10 -60 172 -61 187 0 4 -6 23 -15 43 -8 19 -13 36 -12 37 1 2 -8 32 -20 68
-11 36 -35 112 -52 170 -17 58 -40 130 -49 160 -10 30 -28 87 -40 125 -13 39
-27 79 -31 90 -5 11 -18 47 -30 80 -11 33 -28 76 -36 95 -30 66 -109 225 -115
230 -3 3 -19 25 -36 50 -36 53 -130 138 -179 162 -19 9 -34 14 -34 12 0 -2
-15 2 -32 9 -48 20 -137 21 -189 2 -24 -8 -48 -17 -54 -18 -5 -1 -12 -4 -15
-8 -3 -3 -22 -18 -43 -34 -40 -30 -99 -111 -131 -180 -17 -37 -72 -198 -82
-237 -9 -37 -14 -64 -20 -92 -2 -16 -7 -32 -9 -36 -2 -4 -7 -20 -9 -36 -8 -39
-14 -73 -21 -106 -4 -15 -8 -39 -10 -55 -2 -15 -7 -39 -10 -53 -3 -14 -8 -45
-11 -70 -3 -25 -7 -56 -10 -70 -14 -78 -23 -137 -29 -189 -2 -19 -7 -50 -10
-70 -4 -20 -8 -54 -11 -76 -2 -22 -6 -56 -9 -76 -3 -20 -8 -56 -10 -80 -3 -24
-7 -55 -9 -69 -3 -14 -8 -50 -11 -80 -4 -30 -8 -66 -10 -80 -10 -73 -15 -109
-19 -145 -3 -22 -8 -58 -11 -80 -3 -22 -7 -59 -9 -82 -3 -24 -7 -51 -10 -60
-2 -10 -7 -45 -11 -78 -3 -33 -8 -67 -10 -75 -2 -8 -6 -35 -9 -60 -3 -25 -8
-54 -10 -65 -2 -11 -7 -40 -10 -65 -19 -124 -39 -220 -45 -220 -4 0 -8 6 -8
13 0 6 -3 35 -7 62 -4 28 -10 66 -12 85 -3 19 -7 51 -10 70 -3 19 -7 49 -9 65
-1 17 -6 45 -9 63 -4 17 -9 54 -11 81 -2 27 -6 66 -9 87 -3 22 -10 77 -15 124
-6 47 -13 108 -16 135 -3 28 -8 73 -11 100 -2 28 -6 66 -8 85 -2 19 -7 67 -10
105 -4 39 -9 86 -11 105 -2 19 -7 64 -10 100 -3 36 -7 81 -10 100 -2 19 -6 67
-10 105 -3 39 -8 89 -11 113 -3 23 -7 64 -9 90 -2 26 -6 74 -9 107 -23 234
-25 262 -32 320 -3 28 -7 61 -9 75 -2 14 -6 61 -10 105 -8 86 -9 96 -20 194
-7 67 -12 111 -20 171 -2 19 -7 58 -10 85 -3 28 -8 66 -10 85 -6 44 -15 109
-19 135 -2 11 -7 47 -11 80 -4 33 -9 69 -12 80 -2 11 -6 38 -9 60 -18 131 -91
449 -114 503 -6 12 -14 33 -20 47 -62 155 -136 234 -252 269 -130 39 -277 -32
-351 -169 -28 -52 -64 -147 -82 -220 -9 -38 -20 -77 -22 -85 -3 -8 -7 -22 -8
-30 -8 -46 -18 -103 -34 -185 -6 -27 -13 -68 -16 -90 -7 -40 -8 -47 -20 -140
-3 -27 -8 -61 -10 -75 -12 -86 -16 -111 -21 -160 -3 -30 -7 -66 -9 -80 -1 -14
-6 -52 -9 -85 -4 -33 -9 -76 -11 -95 -2 -19 -7 -66 -11 -105 -3 -38 -7 -83 -9
-100 -1 -16 -6 -66 -9 -110 -4 -44 -9 -93 -12 -108 -2 -15 -6 -62 -9 -105 -2
-42 -5 -77 -6 -77 -1 0 -2 -13 -4 -30 -1 -16 -5 -68 -10 -115 -4 -47 -8 -102
-10 -123 -2 -21 -6 -73 -10 -115 -3 -42 -8 -101 -11 -129 -2 -29 -6 -77 -9
-105 -5 -62 -16 -196 -20 -253 -1 -22 -6 -74 -10 -115 -3 -41 -8 -102 -10
-135 -2 -33 -4 -60 -5 -60 -1 0 -3 -20 -5 -45 -2 -45 -14 -195 -20 -260 -2
-19 -6 -71 -10 -115 -3 -44 -8 -96 -10 -115 -2 -19 -6 -71 -10 -115 -4 -44 -8
-96 -10 -115 -2 -19 -6 -66 -9 -105 -4 -38 -9 -86 -11 -105 -2 -19 -6 -60 -9
-90 -3 -30 -8 -80 -11 -110 -14 -146 -25 -246 -30 -280 -2 -14 -7 -59 -10
-100 -4 -41 -8 -77 -10 -80 -1 -3 -6 -36 -10 -75 -4 -38 -9 -79 -11 -90 -1
-11 -3 -26 -3 -32 -1 -7 -4 -13 -8 -13 -5 0 -9 21 -10 48 0 26 -4 67 -7 92 -3
25 -8 77 -11 115 -3 39 -7 86 -9 105 -2 19 -7 80 -11 135 -3 55 -8 118 -10
140 -2 22 -7 83 -10 136 -3 54 -8 126 -10 160 -3 35 -7 102 -10 149 -3 47 -7
121 -10 165 -6 84 -14 221 -20 340 -3 74 -13 252 -20 370 -7 118 -17 286 -21
360 -2 39 -6 113 -9 165 -3 52 -7 136 -10 185 -2 50 -7 131 -10 180 -3 50 -8
126 -10 170 -3 44 -7 109 -9 145 -3 36 -7 110 -11 165 -8 137 -13 209 -19 285
-3 36 -8 99 -11 140 -2 41 -7 95 -10 120 -3 25 -7 81 -10 125 -3 44 -7 98 -9
120 -4 36 -11 116 -21 230 -5 59 -14 135 -30 270 -8 66 -17 138 -19 160 -3 22
-7 51 -10 65 -3 14 -8 47 -11 74 -3 27 -7 59 -10 70 -2 12 -7 37 -10 56 -11
77 -41 225 -60 301 -8 30 -16 64 -18 75 -2 10 -9 32 -15 47 -7 15 -15 40 -19
55 -3 15 -13 43 -21 62 -9 19 -16 40 -18 45 -5 28 -78 136 -122 182 -85 86
-229 123 -332 85z"/>
</g>
</svg>
