<?xml version="1.0" standalone="no"?>
<!DOCTYPE svg PUBLIC "-//W3C//DTD SVG 20010904//EN"
 "http://www.w3.org/TR/2001/REC-SVG-20010904/DTD/svg10.dtd">
<svg version="1.0" xmlns="http://www.w3.org/2000/svg"
 width="676.000000pt" height="676.000000pt" viewBox="0 0 676.000000 676.000000"
 preserveAspectRatio="xMidYMid meet">
<metadata>
Created by potrace 1.14, written by Peter Selinger 2001-2017
</metadata>
<g transform="translate(0.000000,676.000000) scale(0.100000,-0.100000)"
fill="#000000" stroke="none">
<path d="M2252 5729 c-78 -50 -109 -170 -98 -379 14 -281 66 -602 246 -1535
127 -656 195 -1043 186 -1052 -7 -7 -95 247 -251 725 -297 908 -365 1101 -456
1290 -71 148 -130 215 -197 227 -23 3 -51 3 -64 0 -43 -13 -90 -58 -112 -104
-19 -41 -21 -63 -20 -196 1 -179 12 -263 109 -845 94 -565 102 -619 110 -710
5 -69 5 -73 -8 -45 -8 17 -53 143 -101 280 -136 390 -163 461 -231 600 -69
143 -116 205 -178 236 -85 44 -196 13 -249 -69 -67 -103 -79 -188 -87 -622 -3
-195 -10 -361 -14 -368 -6 -9 -39 16 -113 86 -154 146 -254 192 -420 192 -83
0 -208 -21 -245 -41 -29 -15 -59 -69 -59 -104 0 -42 32 -89 70 -105 27 -11 48
-11 134 3 110 17 178 12 238 -19 18 -9 83 -65 143 -124 132 -130 175 -155 262
-154 73 1 125 29 172 95 54 73 62 136 71 544 4 207 12 381 18 395 9 23 13 19
55 -70 44 -94 104 -256 233 -625 165 -474 250 -605 391 -605 63 0 108 29 143
90 23 41 25 58 28 180 5 171 -16 334 -113 915 -80 479 -109 665 -102 671 6 6
105 -282 246 -716 116 -355 279 -847 297 -893 5 -13 -1 -12 -33 4 -83 44 -196
4 -250 -88 -58 -99 -65 -153 -73 -558 -4 -203 -10 -378 -14 -387 -3 -10 -8
-26 -11 -35 -4 -12 -28 6 -98 78 -111 114 -187 162 -299 191 -67 17 -99 19
-168 14 -114 -9 -197 -30 -226 -57 -50 -47 -48 -123 6 -172 33 -30 78 -35 140
-17 19 6 70 11 112 11 114 1 161 -24 283 -149 120 -124 176 -157 260 -156 78
1 135 31 175 94 54 84 61 139 70 545 8 353 13 415 30 415 19 0 119 -252 240
-605 134 -391 206 -554 282 -640 50 -57 84 -75 143 -75 56 0 96 19 129 62 41
55 50 112 43 292 -7 180 -24 302 -131 946 -41 245 -77 472 -80 505 -6 55 -5
58 8 35 18 -32 171 -483 326 -965 272 -841 394 -1142 502 -1240 70 -63 134
-70 201 -23 117 83 96 356 -114 1440 l-33 167 37 40 c20 22 40 53 44 68 5 16
8 96 7 178 -1 148 -19 304 -65 554 -21 116 -23 133 -10 111 14 -24 129 -344
301 -840 338 -972 450 -1252 550 -1378 87 -110 214 -109 272 3 17 32 22 63 26
150 7 184 -34 456 -183 1205 -116 584 -162 825 -184 960 -12 69 -24 136 -27
150 -20 92 79 -138 267 -618 303 -771 417 -1003 526 -1069 80 -48 177 -17 222
72 25 48 26 55 25 225 -1 131 -8 220 -27 355 -14 99 -42 288 -61 420 -19 132
-38 278 -42 325 l-6 85 20 -20 c11 -11 88 -121 170 -245 212 -321 272 -380
382 -380 61 0 96 17 140 66 43 50 65 100 89 211 30 131 34 138 97 155 31 9 57
12 60 6 3 -5 34 -106 69 -226 46 -158 65 -212 71 -197 4 11 69 167 144 347
l137 328 -301 213 c-166 118 -302 211 -304 207 -2 -4 24 -103 58 -218 33 -116
60 -213 60 -216 0 -3 -37 -16 -82 -30 -140 -43 -187 -102 -229 -283 -11 -51
-25 -93 -29 -93 -5 0 -83 111 -173 248 -182 273 -260 367 -339 406 -81 40
-163 31 -215 -25 -78 -86 -75 -236 17 -880 33 -228 60 -426 59 -440 -1 -41
-80 139 -286 656 -364 914 -442 1069 -561 1126 l-49 24 -31 225 c-40 289 -48
375 -34 366 6 -3 81 -113 167 -243 216 -326 284 -393 395 -393 61 0 96 17 140
66 43 50 65 100 89 210 31 140 31 140 95 155 31 7 58 10 59 8 2 -2 30 -96 61
-209 32 -113 62 -212 66 -220 6 -10 12 -5 22 20 8 19 72 174 143 344 88 211
125 313 119 322 -10 15 -597 434 -602 429 -2 -1 24 -97 58 -213 33 -116 60
-217 60 -225 0 -9 -27 -22 -73 -35 -40 -12 -92 -35 -114 -51 -52 -37 -96 -125
-119 -239 -10 -47 -22 -81 -28 -79 -6 1 -81 108 -167 236 -166 250 -271 376
-342 410 -60 29 -143 28 -187 -1 -19 -13 -45 -45 -59 -73 -25 -48 -26 -56 -25
-210 1 -140 9 -213 63 -584 34 -233 61 -438 59 -455 -4 -39 -84 146 -331 770
-181 455 -283 692 -344 802 -47 83 -107 158 -146 183 -45 27 -121 26 -164 -3
-54 -37 -68 -77 -71 -208 -4 -136 23 -335 98 -733 l48 -258 -26 -52 c-27 -50
-27 -55 -27 -243 0 -106 -3 -187 -7 -180 -4 7 -48 130 -97 273 -384 1112 -562
1504 -715 1577 -48 23 -124 20 -164 -5z m327 -754 c96 -243 161 -422 371
-1025 266 -762 344 -973 440 -1180 51 -110 55 -125 181 -800 37 -198 98 -564
94 -568 -10 -10 -131 342 -394 1143 -320 974 -390 1115 -555 1115 -25 0 -46 4
-46 10 0 5 -27 148 -60 317 -75 389 -131 701 -165 916 -26 170 -55 421 -54
467 1 38 95 -161 188 -395z m1107 -590 c218 -547 358 -856 431 -950 44 -57
104 -95 150 -95 26 0 34 -5 38 -22 3 -13 59 -295 124 -628 120 -609 187 -978
178 -987 -10 -10 -119 286 -370 1008 -85 244 -185 527 -222 629 -180 497 -336
846 -434 967 -50 62 -50 63 -80 215 -48 244 -91 489 -90 512 1 33 44 -68 275
-649z m-989 -2175 c12 0 24 -8 27 -17 7 -24 66 -433 66 -458 -1 -18 -2 -18
-10 -3 -14 23 -180 489 -180 504 0 1 17 -4 38 -12 20 -7 47 -13 59 -14z"/>
</g>
</svg>
