<svg xmlns="http://www.w3.org/2000/svg" version="1.1" xmlns:xlink="http://www.w3.org/1999/xlink" xmlns:svgjs="http://svgjs.com/svgjs" width="1000" height="1000"><rect width="1000" height="1000" rx="200" ry="200" fill="#ffffff"></rect><g transform="matrix(2.703066977505854,0,0,2.703066977505854,100.00106245434233,262.243230699493)"><svg xmlns="http://www.w3.org/2000/svg" version="1.1" xmlns:xlink="http://www.w3.org/1999/xlink" xmlns:svgjs="http://svgjs.com/svgjs" width="295.96011" height="175.91595"><svg width="295.96011" height="175.91595" xml:space="preserve" overflow="hidden" version="1.1" id="svg6" sodipodi:docname="photon-logo-orange.svg" inkscape:version="1.2.2 (732a01da63, 2022-12-09)" xmlns:inkscape="http://www.inkscape.org/namespaces/inkscape" xmlns:sodipodi="http://sodipodi.sourceforge.net/DTD/sodipodi-0.dtd" xmlns="http://www.w3.org/2000/svg" xmlns:svg="http://www.w3.org/2000/svg"><defs id="defs10"></defs><sodipodi:namedview id="namedview8" pagecolor="#ffffff" bordercolor="#000000" borderopacity="0.25" inkscape:showpageshadow="2" inkscape:pageopacity="0.0" inkscape:pagecheckerboard="0" inkscape:deskcolor="#d1d1d1" showgrid="false" inkscape:zoom="2.1344411" inkscape:cx="110.33333" inkscape:cy="83.159943" inkscape:window-width="1920" inkscape:window-height="991" inkscape:window-x="-9" inkscape:window-y="-9" inkscape:window-maximized="1" inkscape:current-layer="g4"></sodipodi:namedview><g transform="translate(-1300.2199,-1852.6925)" id="g4"><path d="m 1306.51,1934.7 4.75,0.27 4.82,0.85 c 0.28,0.05 0.56,0.13 0.84,0.22 l 3.42,1.18 c 0.3,0.1 0.59,0.23 0.86,0.37 l 2.88,1.53 c 0.28,0.15 0.54,0.32 0.79,0.51 l 2.4,1.81 c 0.23,0.18 0.45,0.37 0.65,0.58 l 1.99,2.02 c 0.24,0.24 0.46,0.51 0.65,0.79 l 3.02,4.39 2.64,5.06 2,3.74 -0.46,-0.73 1.12,1.53 -0.78,-0.87 1.29,1.18 -1.37,-0.94 1.52,0.76 -1.79,-0.56 1.83,0.27 -2.55,0.18 1.92,-0.57 -2.32,1.31 1.76,-1.6 -0.98,1.15 1.62,-2.49 1.11,-2.49 1.24,-3.37 1.28,-3.99 2.6,-9.07 2.72,-9.28 1.51,-4.49 1.64,-4.12 1.87,-3.71 c 0.13,-0.27 0.29,-0.52 0.46,-0.77 l 1.78,-2.48 c 0.3,-0.42 0.66,-0.8 1.06,-1.13 l 1.94,-1.6 c 0.66,-0.54 1.43,-0.94 2.26,-1.16 l 2.13,-0.56 c 0.89,-0.24 1.83,-0.27 2.73,-0.08 l 1.06,0.22 c 0.76,0.16 1.48,0.46 2.11,0.88 l 0.96,0.64 c 0.48,0.32 0.9,0.71 1.27,1.15 l 0.85,1.03 c 0.25,0.3 0.46,0.61 0.65,0.95 l 0.76,1.39 c 0.16,0.31 0.3,0.62 0.41,0.95 l 1.28,3.77 1.18,5.62 0.83,6.2 0.6,6.69 0.47,7.04 0.39,7.19 0.37,7.12 0.42,6.84 0.5,6.32 0.64,5.54 0.82,4.48 0.97,3.04 -0.37,-0.92 0.68,1.36 -0.6,-0.96 0.76,1 -1.29,-1.25 0.86,0.61 -2.32,-0.99 0.96,0.19 -3.05,0.21 0.99,-0.33 -2.25,1.38 0.93,-0.91 -0.92,1.17 0.87,-1.45 -0.38,0.75 0.82,-1.94 0.6,-1.91 0.65,-2.49 0.65,-2.97 0.63,-3.37 1.23,-7.79 1.14,-8.73 1.1,-9.4 1.07,-9.75 1.08,-9.79 1.1,-9.51 1.17,-8.95 1.27,-8.08 0.7,-3.71 0.73,-3.35 0.79,-3.03 0.88,-2.71 1,-2.41 c 0.11,-0.26 0.25,-0.52 0.4,-0.77 l 0.86,-1.41 c 0.27,-0.44 0.59,-0.84 0.97,-1.2 l 0.91,-0.87 c 0.67,-0.64 1.48,-1.11 2.36,-1.39 l 0.97,-0.3 c 1.33,-0.41 2.76,-0.34 4.04,0.19 l 0.96,0.4 c 0.99,0.41 1.85,1.08 2.49,1.94 l 0.86,1.15 c 0.29,0.4 0.53,0.83 0.72,1.28 l 0.77,1.85 0.93,3.22 0.71,3.54 0.59,3.94 0.51,4.37 0.44,4.76 0.38,5.13 0.34,5.45 0.57,11.7 0.47,12.49 0.42,12.85 0.44,12.82 0.49,12.39 0.61,11.54 0.36,5.29 0.4,4.95 0.45,4.51 0.51,4.03 0.56,3.46 0.61,2.82 0.63,2.06 0.56,1.11 -0.79,-1.29 0.92,1.15 -2.5,-1.83 1.02,0.39 -4.6,0.13 1.05,-0.47 -2.39,1.95 0.99,-1.38 -0.65,1.16 0.94,-2.21 0.66,-2.37 0.76,-3.34 0.76,-4.13 0.75,-4.81 0.73,-5.4 0.71,-5.9 0.69,-6.36 1.36,-13.78 1.32,-14.77 1.34,-15.28 1.37,-15.31 1.45,-14.86 1.57,-13.94 0.84,-6.51 0.88,-6.09 0.93,-5.63 0.99,-5.13 1.06,-4.59 1.15,-4.02 1.28,-3.45 1.53,-2.94 c 0.24,-0.44 0.53,-0.85 0.87,-1.21 l 1.26,-1.37 c 0.66,-0.72 1.49,-1.26 2.41,-1.58 l 1.34,-0.47 c 1.28,-0.45 2.67,-0.45 3.95,0 l 1.33,0.47 c 0.94,0.33 1.79,0.9 2.45,1.64 l 1.23,1.37 c 0.34,0.38 0.63,0.8 0.87,1.26 l 1.13,2.2 1.36,3.74 1.09,4.17 0.95,4.66 0.84,5.18 0.76,5.65 0.7,6.09 0.63,6.48 1.12,13.89 0.97,14.84 0.88,15.27 0.83,15.24 0.84,14.74 0.89,13.74 0.48,6.33 0.5,5.9 0.55,5.41 0.58,4.84 0.63,4.19 0.66,3.46 0.68,2.61 0.64,1.57 -0.62,-1.19 0.91,1.36 -2.41,-2.08 0.99,0.47 -4.78,-0.14 1.01,-0.4 -2.42,1.79 0.95,-1.18 -0.74,1.19 0.9,-1.91 0.58,-1.91 0.68,-2.8 0.71,-3.51 0.69,-4.11 0.67,-4.63 0.65,-5.07 0.62,-5.47 1.19,-11.89 1.12,-12.73 1.09,-13.19 1.07,-13.22 1.09,-12.83 1.13,-12.05 0.59,-5.62 0.62,-5.26 0.64,-4.87 0.68,-4.43 0.72,-3.97 0.77,-3.46 0.86,-2.98 1.02,-2.54 c 0.16,-0.4 0.37,-0.78 0.62,-1.14 l 0.85,-1.21 c 0.58,-0.83 1.36,-1.5 2.28,-1.94 l 0.89,-0.43 c 1.39,-0.68 2.98,-0.78 4.44,-0.31 l 0.89,0.29 c 0.96,0.31 1.82,0.86 2.51,1.59 l 0.84,0.9 c 0.35,0.37 0.65,0.79 0.9,1.23 l 0.79,1.47 1.1,2.74 0.86,2.94 0.76,3.23 0.69,3.55 0.64,3.86 1.18,8.5 1.09,9.46 1.03,10.05 1,10.33 1,10.3 1.01,9.95 1.07,9.26 1.14,8.24 0.59,3.56 0.61,3.2 0.64,2.74 0.64,2.2 0.6,1.57 0.47,0.77 -0.85,-1.21 0.84,0.93 -2.4,-1.6 0.89,0.32 -3.42,-0.18 0.9,-0.22 -2.19,1.05 0.84,-0.64 -1.12,1.12 0.79,-1.04 -0.53,0.82 0.75,-1.39 -0.35,0.77 1.37,-3.77 1.05,-4.31 1.04,-5.46 0.99,-6.27 0.95,-6.8 0.92,-7.08 0.92,-7.13 0.95,-6.95 1,-6.56 1.1,-5.96 1.23,-5.2 1.46,-4.32 1.02,-2.15 c 0.14,-0.28 0.3,-0.55 0.49,-0.81 l 0.75,-1.03 c 0.31,-0.42 0.67,-0.81 1.08,-1.14 l 0.79,-0.64 c 0.66,-0.53 1.42,-0.91 2.24,-1.13 l 0.84,-0.22 c 1.05,-0.27 2.14,-0.25 3.18,0.05 l 1.68,0.49 c 0.84,0.25 1.6,0.67 2.26,1.24 l 1.59,1.39 c 0.36,0.32 0.68,0.68 0.96,1.08 l 1.51,2.16 1.84,3.5 1.57,3.75 1.43,3.98 2.59,8.25 2.46,8.08 1.18,3.55 1.16,3.08 1.1,2.41 0.96,1.5 -0.85,-1.1 1.34,1.36 -2.4,-1.48 1.4,0.45 -2.82,-0.21 1.35,-0.22 -1.52,0.47 1.21,-0.56 -1.54,1.04 2.08,-1.94 -0.93,1.1 1.77,-2.7 1.34,-2.58 1.66,-3.09 2.17,-3.22 c 0.29,-0.42 0.63,-0.81 1.02,-1.14 l 2.18,-1.88 c 0.48,-0.42 1.03,-0.75 1.62,-1 l 1.27,-0.52 c 0.48,-0.2 0.99,-0.34 1.5,-0.4 l 1.43,-0.19 12.89,-0.05 c 3.29,0 5.96,2.67 5.96,5.96 0,3.29 -2.67,5.96 -5.96,5.96 l -11.35,-0.05 -1.42,0.18 1.5,-0.4 -1.28,0.53 1.62,-1 -2.18,1.88 1.02,-1.14 -1.49,2.11 -1.63,3.03 -1.91,3.56 -1.77,2.69 c -0.26,0.4 -0.57,0.77 -0.92,1.1 l -2.09,1.93 c -0.46,0.43 -0.98,0.78 -1.55,1.04 l -1.21,0.56 c -0.48,0.23 -1,0.38 -1.52,0.47 l -1.35,0.23 c -0.95,0.16 -1.91,0.08 -2.82,-0.21 l -1.4,-0.45 c -0.91,-0.3 -1.73,-0.8 -2.41,-1.48 l -1.34,-1.36 c -0.32,-0.33 -0.61,-0.7 -0.85,-1.1 l -1.63,-2.76 -1.41,-3.15 -1.31,-3.52 -1.27,-3.82 -2.43,-7.98 -2.45,-7.83 -1.21,-3.42 -1.17,-2.88 -1.02,-2.11 -1.5,-2.16 0.96,1.08 -1.58,-1.4 2.25,1.24 -1.69,-0.49 3.18,0.04 -0.84,0.22 2.24,-1.12 -0.8,0.64 1.09,-1.15 -0.75,1.03 0.49,-0.81 -0.38,0.65 -1.14,3.22 -1.1,4.59 -1.04,5.61 -0.97,6.36 -0.94,6.87 -0.93,7.14 -0.93,7.18 -0.98,7.02 -1.06,6.66 -1.18,6.11 -1.4,5.47 -1.37,3.78 c -0.1,0.26 -0.22,0.52 -0.35,0.77 l -0.74,1.4 c -0.16,0.28 -0.33,0.56 -0.53,0.82 l -0.79,1.03 c -0.33,0.42 -0.7,0.79 -1.12,1.11 l -0.84,0.64 c -0.65,0.5 -1.4,0.85 -2.19,1.05 l -0.89,0.22 c -1.13,0.27 -2.32,0.21 -3.42,-0.17 l -0.89,-0.32 c -0.92,-0.33 -1.75,-0.88 -2.41,-1.6 l -0.84,-0.93 c -0.34,-0.36 -0.62,-0.77 -0.86,-1.2 l -1.12,-2.22 -0.9,-2.47 -0.8,-2.8 -0.72,-3.16 -0.67,-3.51 -0.64,-3.87 -1.17,-8.5 -1.08,-9.42 -1.03,-10.01 -0.99,-10.3 -0.99,-10.27 -1.01,-9.9 -1.06,-9.18 -1.13,-8.18 -0.59,-3.55 -0.6,-3.13 -0.6,-2.63 -0.56,-2.02 -0.42,-1.26 -0.8,-1.47 0.9,1.24 -0.85,-0.9 2.51,1.59 -0.9,-0.3 4.44,-0.3 -0.9,0.43 2.29,-1.94 -0.85,1.21 0.62,-1.13 -0.59,1.32 -0.66,2.24 -0.68,2.99 -0.66,3.63 -0.64,4.19 -0.62,4.69 -0.6,5.13 -0.59,5.49 -1.12,11.93 -1.08,12.8 -1.08,13.23 -1.09,13.25 -1.13,12.88 -1.21,12.05 -0.64,5.62 -0.68,5.29 -0.71,4.9 -0.76,4.48 -0.83,4.05 -0.92,3.62 -1.12,3.26 -0.9,1.91 c -0.2,0.42 -0.45,0.83 -0.74,1.19 l -0.95,1.19 c -0.64,0.79 -1.47,1.41 -2.42,1.79 l -1,0.41 c -1.54,0.62 -3.28,0.57 -4.78,-0.14 l -0.99,-0.47 c -0.98,-0.46 -1.81,-1.18 -2.41,-2.08 l -0.91,-1.36 c -0.25,-0.38 -0.46,-0.78 -0.62,-1.2 l -1.03,-2.83 -0.85,-3.35 -0.74,-3.93 -0.67,-4.52 -0.61,-5.07 -0.56,-5.57 -0.52,-6.04 -0.48,-6.45 -0.9,-13.83 -0.84,-14.77 -0.83,-15.2 -0.87,-15.18 -0.96,-14.66 -1.1,-13.69 -0.62,-6.3 -0.66,-5.85 -0.71,-5.33 -0.76,-4.73 -0.81,-4.04 -0.81,-3.22 -0.71,-2.23 -1.13,-2.2 0.87,1.26 -1.23,-1.36 2.46,1.64 -1.33,-0.47 h 3.95 l -1.34,0.47 2.4,-1.57 -1.26,1.37 0.86,-1.21 -0.86,1.48 -0.98,2.54 -1,3.41 -0.96,4.16 -0.94,4.81 -0.89,5.4 -0.85,5.9 -0.82,6.32 -1.55,13.77 -1.44,14.77 -1.37,15.28 -1.34,15.31 -1.33,14.86 -1.37,13.92 -0.71,6.48 -0.73,6.09 -0.77,5.63 -0.81,5.14 -0.86,4.62 -0.95,4.08 -1.11,3.62 -0.94,2.21 c -0.17,0.41 -0.39,0.8 -0.65,1.16 l -0.99,1.37 c -0.61,0.85 -1.43,1.52 -2.38,1.95 l -1.05,0.47 c -1.45,0.66 -3.11,0.7 -4.59,0.13 l -1.02,-0.39 c -0.98,-0.38 -1.85,-1.01 -2.51,-1.84 l -0.92,-1.15 c -0.32,-0.39 -0.58,-0.83 -0.79,-1.29 l -1.1,-2.6 -0.86,-2.96 -0.72,-3.4 -0.62,-3.88 -0.54,-4.32 -0.48,-4.73 -0.41,-5.11 -0.37,-5.47 -0.61,-11.7 -0.5,-12.45 -0.44,-12.83 -0.42,-12.8 -0.47,-12.36 -0.56,-11.54 -0.32,-5.3 -0.37,-4.93 -0.41,-4.49 -0.46,-3.98 -0.49,-3.39 -0.51,-2.69 -0.45,-1.81 -0.77,-1.85 0.73,1.28 -0.86,-1.15 2.5,1.94 -0.95,-0.39 4.04,0.19 -0.97,0.3 2.36,-1.39 -0.92,0.88 0.97,-1.2 -0.87,1.42 0.4,-0.77 -0.64,1.42 -0.67,2.03 -0.68,2.56 -0.66,3.01 -0.63,3.35 -1.23,7.78 -1.15,8.77 -1.1,9.44 -1.07,9.79 -1.08,9.83 -1.12,9.58 -1.19,9.03 -1.29,8.15 -0.71,3.72 -0.76,3.43 -0.84,3.16 -0.96,2.88 -0.83,1.94 c -0.11,0.26 -0.24,0.51 -0.38,0.76 l -0.88,1.44 c -0.26,0.43 -0.57,0.82 -0.92,1.17 l -0.93,0.91 c -0.63,0.62 -1.4,1.09 -2.24,1.38 l -0.98,0.34 c -0.99,0.33 -2.04,0.41 -3.06,0.21 l -0.95,-0.18 c -0.84,-0.16 -1.63,-0.49 -2.32,-0.98 l -0.86,-0.61 c -0.49,-0.35 -0.93,-0.77 -1.29,-1.24 l -0.77,-1 c -0.23,-0.31 -0.43,-0.63 -0.61,-0.97 l -0.68,-1.37 c -0.14,-0.3 -0.27,-0.6 -0.36,-0.92 l -1.3,-4.4 -0.92,-5.22 -0.69,-5.96 -0.52,-6.55 -0.42,-6.93 -0.37,-7.11 -0.38,-7.05 -0.45,-6.76 -0.55,-6.21 -0.69,-5.38 -0.79,-4.16 -1.27,-3.77 0.41,0.95 -0.76,-1.4 0.64,0.95 -0.86,-1.03 1.27,1.14 -0.95,-0.64 2.11,0.89 -1.06,-0.22 2.74,-0.08 -2.13,0.57 2.25,-1.16 -1.94,1.6 1.06,-1.13 -1.78,2.48 0.47,-0.76 -1.42,2.73 -1.42,3.51 -1.36,4.02 -2.71,9.22 -2.71,9.43 -1.46,4.52 -1.61,4.25 -1.92,3.95 -1.63,2.49 c -0.28,0.42 -0.61,0.81 -0.98,1.15 l -1.76,1.6 c -0.66,0.6 -1.46,1.05 -2.32,1.3 l -1.92,0.57 c -0.83,0.24 -1.7,0.3 -2.55,0.18 l -1.83,-0.27 c -0.62,-0.09 -1.23,-0.28 -1.79,-0.56 l -1.52,-0.76 c -0.5,-0.25 -0.96,-0.57 -1.37,-0.94 l -1.29,-1.18 c -0.29,-0.27 -0.55,-0.56 -0.78,-0.87 l -1.12,-1.53 c -0.17,-0.23 -0.32,-0.47 -0.45,-0.72 l -2.09,-3.92 -1.84,-3.72 -3.02,-4.39 0.65,0.8 -1.98,-2.02 0.66,0.57 -2.39,-1.8 0.79,0.5 -2.87,-1.53 0.86,0.38 -3.43,-1.18 0.84,0.22 -3.29,-0.66 -4.75,-0.27 c -3.29,-0.19 -5.8,-3 -5.61,-6.29 0.18,-3.28 3,-5.8 6.28,-5.61 z m 265.83,-23.84 23.84,29.79 -23.84,29.79 z" fill="#0000ff" id="path2" style="fill:#ff7f0e;fill-opacity:1"></path></g></svg></svg></g></svg>