<?xml version="1.0" encoding="UTF-8" standalone="no"?>
<svg
   width="338.4155"
   height="267.72681"
   xml:space="preserve"
   overflow="hidden"
   version="1.1"
   id="svg6"
   sodipodi:docname="logo-photons-fit.svg"
   inkscape:version="1.2.2 (732a01da63, 2022-12-09)"
   xmlns:inkscape="http://www.inkscape.org/namespaces/inkscape"
   xmlns:sodipodi="http://sodipodi.sourceforge.net/DTD/sodipodi-0.dtd"
   xmlns="http://www.w3.org/2000/svg"
   xmlns:svg="http://www.w3.org/2000/svg"><defs
     id="defs10" /><sodipodi:namedview
     id="namedview8"
     pagecolor="#ffffff"
     bordercolor="#000000"
     borderopacity="0.25"
     inkscape:showpageshadow="2"
     inkscape:pageopacity="0.0"
     inkscape:pagecheckerboard="0"
     inkscape:deskcolor="#d1d1d1"
     showgrid="false"
     inkscape:zoom="1.5092778"
     inkscape:cx="165.97342"
     inkscape:cy="116.94335"
     inkscape:window-width="1920"
     inkscape:window-height="991"
     inkscape:window-x="-9"
     inkscape:window-y="-9"
     inkscape:window-maximized="1"
     inkscape:current-layer="g4" /><g
     transform="translate(-1269.872,-1851.1625)"
     id="g4"><g
       id="g1710"
       transform="translate(2.734145,-3.1500092)"><circle
         style="fill:#fff1af;fill-opacity:1;stroke:none;stroke-width:0.863325;stroke-linecap:square;stroke-linejoin:round;stroke-opacity:0"
         id="path370"
         cx="1435.8004"
         cy="1988.1759"
         r="133.8634" /><path
         d="m 1271.7749,1986.2922 4.6406,-1.049 4.8676,-0.5107 c 0.283,-0.029 0.5742,-0.029 0.8681,-0.02 l 3.6128,0.1922 c 0.3159,0.014 0.6305,0.059 0.9286,0.1188 l 3.1901,0.6775 c 0.3105,0.067 0.6072,0.1588 0.8999,0.2726 l 2.8057,1.0788 c 0.2707,0.1097 0.5346,0.2317 0.7847,0.3785 l 2.4694,1.3937 c 0.2969,0.1646 0.5827,0.3635 0.8425,0.5803 l 4.1125,3.3883 3.9318,4.1369 2.9528,3.0444 -0.6433,-0.5751 1.4982,1.1623 -0.9895,-0.6215 1.5652,0.779 -1.576,-0.5262 1.6706,0.3119 -1.875,-0.045 1.8335,-0.2445 -2.4017,0.8755 1.6887,-1.0769 -1.8694,1.8984 1.2511,-2.0229 -0.6252,1.3755 0.8713,-2.84 0.3812,-2.6994 0.2636,-3.5812 0.1314,-4.1882 8e-4,-9.4353 0.058,-9.6703 0.2147,-4.7322 0.4416,-4.4124 0.7756,-4.0816 c 0.051,-0.2953 0.1355,-0.5797 0.2301,-0.8669 l 1.0279,-2.8744 c 0.1727,-0.4864 0.4141,-0.9508 0.7077,-1.3783 l 1.4242,-2.0725 c 0.4857,-0.7009 1.1157,-1.2975 1.853,-1.7377 l 1.8933,-1.1251 c 0.7895,-0.4758 1.6849,-0.7636 2.6024,-0.8289 l 1.0796,-0.08 c 0.7746,-0.056 1.5494,0.034 2.2707,0.2647 l 1.0992,0.3508 c 0.5496,0.1753 1.0608,0.4346 1.5377,0.7556 l 1.1008,0.756 c 0.323,0.2195 0.6103,0.4597 0.8866,0.7342 l 1.1135,1.1268 c 0.2392,0.254 0.4592,0.5134 0.6558,0.8003 l 2.269,3.2716 2.6825,5.0775 2.5059,5.7314 2.4197,6.2659 2.3911,6.6381 2.3556,6.8044 2.3171,6.7426 2.288,6.4596 2.2216,5.9378 2.1414,5.1493 2.0224,4.0808 1.7699,2.6552 -0.6091,-0.7825 1.0283,1.12 -0.8412,-0.7575 1.006,0.7519 -1.5844,-0.8463 0.9948,0.3495 -2.503,-0.3126 0.9752,-0.082 -2.8741,1.0421 0.8608,-0.5899 -1.7828,1.9464 0.6433,-1.131 -0.5621,1.3782 0.4369,-1.6336 -0.1587,0.8257 0.2539,-2.0909 0.051,-2.0013 -0.061,-2.5728 -0.1933,-3.0341 -0.3227,-3.4132 -0.9636,-7.8274 -1.309,-8.7063 -1.532,-9.3393 -1.6573,-9.6675 -1.6586,-9.7087 -1.5624,-9.4451 -1.3407,-8.926 -1.005,-8.1172 -0.3491,-3.7593 -0.2211,-3.4215 -0.075,-3.1304 0.099,-2.8475 0.2974,-2.5923 c 0.034,-0.2802 0.097,-0.5687 0.1724,-0.8504 l 0.4383,-1.5923 c 0.1383,-0.4974 0.3358,-0.97 0.6019,-1.4208 l 0.6351,-1.087 c 0.4678,-0.7998 1.117,-1.4748 1.8858,-1.9863 l 0.8498,-0.5557 c 1.1656,-0.7605 2.5596,-1.0871 3.9361,-0.9302 l 1.033,0.12 c 1.0646,0.1215 2.0759,0.5286 2.9281,1.1791 l 1.1435,0.8685 c 0.389,0.3047 0.7381,0.6519 1.0447,1.0322 l 1.2499,1.5663 1.781,2.8392 1.6577,3.2075 1.6526,3.625 1.6941,4.0604 1.7342,4.4546 1.7785,4.8269 1.8282,5.1454 3.771,11.0903 3.8925,11.8773 3.9436,12.2371 3.9545,12.2028 3.8842,11.7756 3.7654,10.9254 1.8033,4.9862 1.7481,4.6483 1.675,4.2115 1.6004,3.7336 1.4915,3.1719 1.3632,2.5428 1.1731,1.8068 0.8442,0.9127 -1.1148,-1.0224 1.2012,0.852 -2.9074,-1.0705 1.0879,0.094 -4.3862,1.3921 0.8799,-0.741 -1.7603,2.5329 0.5715,-1.5993 -0.3053,1.2941 0.2948,-2.3834 -0.018,-2.4601 -0.1895,-3.4201 -0.4071,-4.1796 -0.604,-4.8305 -0.7858,-5.3922 -0.9428,-5.8673 -1.0887,-6.304 -2.4887,-13.6214 -2.7998,-14.5622 -2.9211,-15.0579 -2.9005,-15.0951 -2.6997,-14.6844 -2.3308,-13.8332 -0.9859,-6.4895 -0.8317,-6.0968 -0.6569,-5.6683 -0.4615,-5.2043 -0.2454,-4.7044 v -4.1812 l 0.2801,-3.6691 0.6609,-3.2478 c 0.1095,-0.4891 0.2753,-0.9631 0.503,-1.4028 l 0.8338,-1.6641 c 0.4362,-0.874 1.0853,-1.6217 1.8815,-2.1828 l 1.1587,-0.8209 c 1.1065,-0.7852 2.4427,-1.1681 3.7972,-1.0881 l 1.408,0.085 c 0.9945,0.058 1.9687,0.3721 2.807,0.9016 l 1.5598,0.9782 c 0.4315,0.2716 0.826,0.5955 1.1834,0.9716 l 1.6924,1.8036 2.3376,3.2206 2.1966,3.7084 2.1969,4.218 2.2345,4.7482 2.287,5.222 2.3506,5.6615 2.3907,6.0558 4.903,13.044 5.0205,13.9986 5.0524,14.4368 4.9961,14.4217 4.868,13.9383 4.6406,12.9632 2.2052,5.9528 2.106,5.534 2.019,5.0492 1.8909,4.4929 1.7598,3.8544 1.5876,3.1443 1.3727,2.3217 1.0477,1.3329 -0.9238,-0.9732 1.2494,1.0567 -2.8897,-1.3356 1.0812,0.1791 -4.6336,1.1822 0.8607,-0.6628 -1.8333,2.3874 0.5882,-1.396 -0.3836,1.3478 0.3391,-2.084 0.031,-1.9959 -0.1177,-2.879 -0.2844,-3.5698 -0.4689,-4.141 -0.6313,-4.6354 -0.7718,-5.0529 -0.9109,-5.4292 -2.1314,-11.7578 -2.4301,-12.5459 -2.5857,-12.98 -2.6132,-13.0032 -2.4865,-12.6339 -2.2332,-11.895 -0.981,-5.5651 -0.853,-5.2273 -0.7263,-4.8579 -0.5667,-4.4459 -0.4015,-4.0147 -0.2129,-3.5383 0.01,-3.1016 0.2809,-2.7227 c 0.044,-0.4286 0.1408,-0.8517 0.2819,-1.2667 l 0.4838,-1.3973 c 0.3289,-0.9577 0.8942,-1.8166 1.6574,-2.493 l 0.7371,-0.6586 c 1.1489,-1.0366 2.6498,-1.5707 4.1828,-1.5211 l 0.9354,0.034 c 1.0083,0.034 1.9865,0.3254 2.8509,0.8371 l 1.0555,0.6338 c 0.4383,0.2592 0.8424,0.5803 1.204,0.9344 l 1.1644,1.1955 1.8122,2.331 1.6366,2.5893 1.6204,2.8957 1.6412,3.2226 1.6786,3.5343 3.4759,7.8461 3.6538,8.7937 3.7587,9.3774 3.8069,9.6548 3.7987,9.626 3.7119,9.2868 3.5795,8.607 3.3658,7.6071 1.5479,3.2598 1.4679,2.9081 1.37,2.4577 1.2213,1.9386 1.0093,1.3439 0.6639,0.6108 -1.1504,-0.9291 1.0637,0.6627 -2.7479,-0.877 0.9437,0.062 -3.3373,0.7691 0.8046,-0.4594 -1.816,1.6127 0.6312,-0.8467 -0.7682,1.3852 0.473,-1.2173 -0.2836,0.9342 0.3381,-1.5428 -0.1244,0.8366 0.2785,-4.0015 -0.178,-4.4325 -0.5043,-5.5352 -0.7755,-6.3002 -0.96,-6.7986 -1.066,-7.0595 -1.0797,-7.1075 -1.0013,-6.9428 -0.8458,-6.5817 -0.5844,-6.0324 -0.25,-5.3376 0.2134,-4.5551 0.3883,-2.3478 c 0.057,-0.3077 0.1369,-0.6113 0.2479,-0.9136 l 0.4372,-1.1968 c 0.1823,-0.4891 0.421,-0.9632 0.7242,-1.3934 l 0.5831,-0.8328 c 0.4885,-0.6913 1.1144,-1.266 1.8421,-1.7034 l 0.7469,-0.4429 c 0.935,-0.5488 1.9883,-0.8298 3.0707,-0.8279 l 1.75,0.01 c 0.8763,0.01 1.7226,0.2034 2.5141,0.5695 l 1.9114,0.8982 c 0.4342,0.2085 0.841,0.4664 1.2204,0.7738 l 2.0466,1.6604 2.733,2.8577 2.5422,3.1724 2.4711,3.4321 4.7625,7.2173 4.5906,7.0897 2.1123,3.0876 1.9636,2.6413 1.7213,2.0137 1.3361,1.1775 -1.1202,-0.8232 1.6628,0.9382 -2.7148,-0.7616 1.4698,0.047 -2.7688,0.575 1.2372,-0.5834 -1.3317,0.8705 1.0089,-0.8716 -1.1939,1.424 1.4651,-2.4379 -0.591,1.3136 0.9577,-3.0831 0.5775,-2.8493 0.7445,-3.4278 1.199,-3.6932 c 0.1631,-0.4836 0.3825,-0.9522 0.6665,-1.3768 l 1.5778,-2.4078 c 0.3457,-0.536 0.7835,-1.0048 1.2818,-1.4076 l 1.0776,-0.8498 c 0.4064,-0.3244 0.8581,-0.5995 1.3318,-0.7977 l 1.3223,-0.5766 12.3775,-3.5989 c 3.1627,-0.9063 6.4649,0.9249 7.3713,4.0876 0.9063,3.1627 -0.9249,6.4649 -4.0876,7.3712 l -10.9246,3.0786 -1.3155,0.5642 1.3318,-0.7978 -1.0845,0.8621 1.2818,-1.4075 -1.5777,2.4078 0.6665,-1.3769 -0.8511,2.4388 -0.7323,3.3618 -0.8554,3.9484 -0.9605,3.0735 c -0.1397,0.4562 -0.3358,0.8972 -0.5814,1.3109 l -1.4774,2.4311 c -0.3238,0.54 -0.7272,1.0197 -1.2036,1.4267 l -1.0089,0.8717 c -0.398,0.3533 -0.8566,0.6407 -1.3317,0.8705 l -1.2344,0.593 c -0.8692,0.4155 -1.8141,0.6031 -2.7687,0.575 l -1.4698,-0.047 c -0.9575,-0.038 -1.8835,-0.2924 -2.7245,-0.7588 l -1.6628,-0.9383 c -0.3985,-0.229 -0.7792,-0.5048 -1.1201,-0.8232 l -2.3273,-2.2042 -2.2232,-2.6397 -2.2289,-3.023 -2.2732,-3.3223 -4.5343,-7.0018 -4.5122,-6.8522 -2.1053,-2.9543 -1.9181,-2.4463 -1.5617,-1.7474 -2.037,-1.6632 1.2203,0.7738 -1.9045,-0.9106 2.5045,0.5722 -1.7596,-0.01 3.068,-0.8375 -0.7469,0.4428 1.8448,-1.6937 -0.5927,0.8356 0.731,-1.4057 -0.4372,1.1967 0.2479,-0.9136 -0.1863,0.7295 -0.2088,3.4094 0.207,4.7155 0.5456,5.6794 0.8196,6.3811 0.9889,6.8632 1.0728,7.1199 1.0839,7.1584 0.9918,7.0183 0.8156,6.6944 0.5488,6.1986 0.1611,5.644 -0.2757,4.0112 c -0.025,0.2775 -0.068,0.5605 -0.1244,0.8366 l -0.3257,1.5497 c -0.077,0.3132 -0.163,0.6292 -0.2836,0.9343 l -0.4757,1.2077 c -0.2015,0.4947 -0.4553,0.9523 -0.7709,1.3756 l -0.6312,0.8467 c -0.4871,0.6597 -1.1116,1.2027 -1.816,1.6126 l -0.7949,0.4567 c -1.0119,0.5708 -2.1724,0.841 -3.3345,0.7787 l -0.9438,-0.062 c -0.9753,-0.064 -1.9247,-0.3638 -2.7575,-0.8742 l -1.0637,-0.6626 c -0.426,-0.2524 -0.8081,-0.5694 -1.1573,-0.9166 l -1.6882,-1.8256 -1.5456,-2.1265 -1.5404,-2.4713 -1.5626,-2.8394 -1.611,-3.1896 -1.6813,-3.544 -3.4663,-7.8488 -3.6332,-8.758 -3.7476,-9.339 -3.7891,-9.6287 -3.7808,-9.5999 -3.6981,-9.2388 -3.5479,-8.5328 -3.3396,-7.5522 -1.5451,-3.2501 -1.4391,-2.8436 -1.3013,-2.363 -1.0947,-1.7875 -0.7509,-1.0956 -1.174,-1.1927 1.2068,0.9441 -1.0651,-0.6311 2.8509,0.8371 -0.9478,-0.041 4.1856,-1.5115 -0.7467,0.6613 1.6669,-2.4958 -0.4838,1.3974 0.2848,-1.2571 -0.2036,1.4314 -0.017,2.3352 0.17,3.0616 0.3655,3.6714 0.539,4.2042 0.696,4.6793 0.8364,5.0968 0.9452,5.4401 2.2097,11.7769 2.4879,12.6023 2.6063,13.0156 2.6022,13.0376 2.4618,12.693 2.1563,11.9171 0.9329,5.5788 0.8036,5.2727 0.6673,4.906 0.5035,4.516 0.3178,4.1219 0.1128,3.7334 -0.1786,3.4424 -0.339,2.084 c -0.077,0.4589 -0.2039,0.9219 -0.3835,1.3478 l -0.5855,1.4057 c -0.3976,0.9357 -1.0247,1.7604 -1.8332,2.3874 l -0.8484,0.6696 c -1.3096,1.0202 -2.9961,1.4515 -4.6336,1.1822 l -1.0812,-0.1791 c -1.0688,-0.1723 -2.065,-0.6358 -2.8897,-1.3357 l -1.2495,-1.0566 c -0.345,-0.2965 -0.657,-0.6232 -0.9266,-0.9828 l -1.7697,-2.4368 -1.7399,-2.9862 -1.794,-3.5741 -1.8892,-4.1606 -1.9831,-4.7057 -2.0727,-5.2003 -2.1638,-5.663 -2.2382,-6.0682 -4.675,-13.047 -4.8763,-13.9671 -4.9851,-14.3833 -5.018,-14.353 -4.9613,-13.8283 -4.8287,-12.8573 -2.3315,-5.8854 -2.246,-5.4419 -2.1508,-4.9282 -2.0336,-4.3376 -1.8916,-3.6605 -1.6657,-2.8723 -1.2968,-1.9481 -1.6923,-1.8036 1.1834,0.9715 -1.557,-0.9685 2.8166,0.8989 -1.4081,-0.085 3.7972,-1.0881 -1.1587,0.821 1.8747,-2.1704 -0.8339,1.6641 0.4934,-1.4001 -0.419,1.6596 -0.2424,2.7117 -0.022,3.5535 0.2231,4.2635 0.4214,4.8829 0.632,5.4362 0.8082,5.9059 0.9527,6.3014 2.3033,13.6642 2.6845,14.5952 2.8922,15.0662 2.9294,15.0867 2.815,14.6514 2.5176,13.7589 1.1026,6.4248 0.9758,6.0555 0.8108,5.6243 0.6372,5.1642 0.446,4.6782 0.2107,4.1838 -0.07,3.7857 -0.2949,2.3835 c -0.051,0.4409 -0.1545,0.8764 -0.3053,1.2941 l -0.5743,1.5898 c -0.3522,0.9851 -0.9559,1.8551 -1.7507,2.5301 l -0.8799,0.7411 c -1.2121,1.0339 -2.7968,1.5296 -4.3766,1.3894 l -1.088,-0.094 c -1.0467,-0.095 -2.0566,-0.4613 -2.9197,-1.0774 l -1.2012,-0.8521 c -0.4151,-0.2867 -0.7862,-0.6381 -1.1148,-1.0224 l -1.7737,-2.1964 -1.6421,-2.6086 -1.6288,-3.0701 -1.6648,-3.5591 -1.7092,-4.0041 -1.7644,-4.4147 -1.8018,-4.7994 -1.8626,-5.1564 -3.8094,-11.0793 -3.9103,-11.8305 -3.9573,-12.2124 -3.9299,-12.189 -3.8566,-11.7523 -3.7173,-10.9393 -1.7677,-5.0067 -1.7138,-4.6374 -1.631,-4.2033 -1.5386,-3.6993 -1.4049,-3.1238 -1.2313,-2.4455 -0.9312,-1.616 -1.2498,-1.5663 1.0544,1.0294 -1.1436,-0.8686 2.9377,1.1763 -1.0206,-0.1133 3.936,-0.9302 -0.8498,0.5556 1.8857,-1.9864 -0.6419,1.0994 0.6019,-1.4207 -0.4452,1.6047 0.1724,-0.8504 -0.2241,1.5413 -0.085,2.1361 0.052,2.6482 0.1947,3.0754 0.3172,3.3939 0.9608,7.8178 1.3104,8.7475 1.5431,9.3778 1.6683,9.7059 1.6697,9.7472 1.5623,9.5179 1.3436,9.0084 1.005,8.19 0.3423,3.7717 0.2143,3.5066 0.063,3.2692 -0.1295,3.033 -0.2635,2.0936 c -0.034,0.2802 -0.09,0.5564 -0.1559,0.8352 l -0.4493,1.6267 c -0.1315,0.485 -0.322,0.9453 -0.5621,1.3782 l -0.6433,1.131 c -0.4349,0.7696 -1.0456,1.4335 -1.7732,1.9437 l -0.8484,0.5968 c -0.8608,0.5899 -1.8481,0.9561 -2.8838,1.0448 l -0.9628,0.089 c -0.8516,0.078 -1.7019,-0.022 -2.5002,-0.303 l -0.9948,-0.3495 c -0.5674,-0.2015 -1.1061,-0.484 -1.5816,-0.8367 l -1.0157,-0.7492 c -0.3065,-0.2346 -0.5869,-0.4871 -0.8536,-0.7644 l -1.0311,-1.1297 c -0.2172,-0.2498 -0.4249,-0.5024 -0.5995,-0.7852 l -2.4618,-3.8716 -2.3224,-4.7646 -2.3051,-5.5393 -2.3043,-6.1534 -2.3128,-6.5461 -2.3143,-6.733 -2.3074,-6.6726 -2.2948,-6.3744 -2.2394,-5.8182 -2.1453,-4.9818 -1.9054,-3.7814 -2.2594,-3.2743 0.6558,0.8003 -1.1163,-1.1365 0.877,0.737 -1.1105,-0.7533 1.5349,0.7461 -1.0895,-0.3536 2.2735,0.2743 -1.0796,0.081 2.612,-0.8318 -1.8906,1.1348 1.8434,-1.735 -1.4242,2.0725 0.7077,-1.3782 -1.0279,2.8743 0.2424,-0.86 -0.613,3.0155 -0.3981,3.7654 -0.2,4.2391 -0.065,9.6098 -0.01,9.8117 -0.1584,4.7473 -0.3769,4.529 -0.7576,4.3261 -0.881,2.8427 c -0.1535,0.4809 -0.3633,0.9467 -0.6253,1.3755 l -1.2511,2.0229 c -0.4692,0.7586 -1.1143,1.4116 -1.8721,1.8888 l -1.6887,1.0769 c -0.7318,0.4593 -1.5516,0.7567 -2.4018,0.8755 l -1.8336,0.2445 c -0.6208,0.084 -1.2595,0.07 -1.875,-0.045 l -1.6705,-0.3119 c -0.5495,-0.1026 -1.0799,-0.2835 -1.576,-0.5262 l -1.5651,-0.779 c -0.3532,-0.1797 -0.683,-0.3868 -0.9895,-0.6215 l -1.4981,-1.1622 c -0.2268,-0.1743 -0.4371,-0.3637 -0.631,-0.5682 l -3.089,-3.1926 -2.7935,-3.0692 -4.1125,-3.3882 0.8452,0.59 -2.4598,-1.3964 0.7914,0.3661 -2.7933,-1.072 0.8971,0.2631 -3.1804,-0.6802 0.9314,0.1284 -3.6223,-0.1895 0.8681,-0.02 -3.3445,0.2718 -4.6406,1.049 c -3.2151,0.7237 -6.4021,-1.2862 -7.1257,-4.5012 -0.7305,-3.2027 1.2862,-6.402 4.4916,-7.1229 z m 248.9773,-96.147 31.124,22.07 -14.7113,35.2047 z"
         fill="#0000ff"
         id="path2"
         style="fill:#1f77b4;fill-opacity:1" /><g
         style="overflow:hidden"
         id="g241"
         transform="rotate(-15.9903,7684.0304,-3628.3072)"><path
           d="m 6.2901,82.0075 4.75,0.27 4.82,0.85 c 0.28,0.05 0.56,0.13 0.84,0.22 l 3.42,1.18 c 0.3,0.1 0.59,0.23 0.86,0.37 l 2.88,1.53 c 0.28,0.15 0.54,0.32 0.79,0.51 l 2.4,1.81 c 0.23,0.18 0.45,0.37 0.65,0.58 l 1.99,2.02 c 0.24,0.24 0.46,0.51 0.65,0.79 l 3.02,4.39 2.64,5.06 2,3.74 -0.46,-0.73 1.12,1.53 -0.78,-0.87 1.29,1.18 -1.37,-0.94 1.52,0.76 -1.79,-0.56 1.83,0.27 -2.55,0.18 1.92,-0.57 -2.32,1.31 1.76,-1.6 -0.98,1.15 1.62,-2.49 1.11,-2.49 1.24,-3.37 1.28,-3.99 2.6,-9.07 2.72,-9.28 1.51,-4.49 1.64,-4.12 1.87,-3.71 c 0.13,-0.27 0.29,-0.52 0.46,-0.77 l 1.78,-2.48 c 0.3,-0.42 0.66,-0.8 1.06,-1.13 l 1.94,-1.6 c 0.66,-0.54 1.43,-0.94 2.26,-1.16 l 2.13,-0.56 c 0.89,-0.24 1.83,-0.27 2.73,-0.08 l 1.06,0.22 c 0.76,0.16 1.48,0.46 2.11,0.88 l 0.96,0.64 c 0.48,0.32 0.9,0.71 1.27,1.15 l 0.85,1.03 c 0.25,0.3 0.46,0.61 0.65,0.95 l 0.76,1.39 c 0.16,0.31 0.3,0.62 0.41,0.95 l 1.28,3.77 1.18,5.62 0.83,6.2 0.6,6.69 0.47,7.04 0.39,7.19 0.37,7.12 0.42,6.84 0.5,6.32 0.64,5.54 0.82,4.48 0.97,3.04 -0.37,-0.92 0.68,1.36 -0.6,-0.96 0.76,1 -1.29,-1.25 0.86,0.61 -2.32,-0.99 0.96,0.19 -3.05,0.21 0.99,-0.33 -2.25,1.38 0.93,-0.91 -0.92,1.17 0.87,-1.45 -0.38,0.75 0.82,-1.94 0.6,-1.91 0.65,-2.49 0.65,-2.97 0.63,-3.37 1.23,-7.79 1.14,-8.73 1.1,-9.4 1.07,-9.75 1.08,-9.79 1.1,-9.51 1.17,-8.95 1.27,-8.08 0.7,-3.71 0.73,-3.35 0.79,-3.03 0.88,-2.71 1,-2.41 c 0.11,-0.26 0.25,-0.52 0.4,-0.77 l 0.86,-1.41 c 0.27,-0.44 0.59,-0.84 0.97,-1.2 l 0.91,-0.87 c 0.67,-0.64 1.48,-1.11 2.36,-1.39 l 0.97,-0.3 c 1.33,-0.41 2.76,-0.34 4.04,0.19 l 0.96,0.4 c 0.99,0.41 1.85,1.08 2.49,1.94 l 0.86,1.15 c 0.29,0.4 0.53,0.83 0.72,1.28 l 0.77,1.85 0.93,3.22 0.71,3.54 0.59,3.94 0.51,4.37 0.44,4.76 0.38,5.13 0.34,5.45 0.57,11.7 0.47,12.49 0.42,12.85 0.44,12.82 0.49,12.39 0.61,11.54 0.36,5.29 0.4,4.95 0.45,4.51 0.51,4.03 0.56,3.46 0.61,2.82 0.63,2.06 0.56,1.11 -0.79,-1.29 0.92,1.15 -2.5,-1.83 1.02,0.39 -4.6,0.13 1.05,-0.47 -2.39,1.95 0.99,-1.38 -0.65,1.16 0.94,-2.21 0.66,-2.37 0.76,-3.34 0.76,-4.13 0.75,-4.81 0.73,-5.4 0.71,-5.9 0.69,-6.36 1.36,-13.78 1.32,-14.77 1.34,-15.28 1.37,-15.31 1.45,-14.86 1.57,-13.94 0.84,-6.51 0.88,-6.09 0.93,-5.63 0.99,-5.13 1.06,-4.59 1.15,-4.02 1.28,-3.45 1.53,-2.94 c 0.24,-0.44 0.53,-0.85 0.87,-1.21 l 1.26,-1.37 c 0.66,-0.72 1.49,-1.26 2.41,-1.58 l 1.34,-0.47 c 1.28,-0.45 2.67,-0.45 3.95,0 l 1.33,0.47 c 0.94,0.33 1.79,0.9 2.45,1.64 l 1.23,1.37 c 0.34,0.38 0.63,0.8 0.87,1.26 l 1.13,2.2 1.36,3.74 1.09,4.17 0.95,4.66 0.84,5.18 0.76,5.65 0.7,6.09 0.63,6.48 1.12,13.89 0.97,14.84 0.88,15.27 0.83,15.24 0.84,14.74 0.89,13.74 0.48,6.33 0.5,5.9 0.55,5.41 0.58,4.84 0.63,4.19 0.66,3.46 0.68,2.61 0.64,1.57 -0.62,-1.19 0.91,1.36 -2.41,-2.08 0.99,0.47 -4.78,-0.14 1.01,-0.4 -2.42,1.79 0.95,-1.18 -0.74,1.19 0.9,-1.91 0.58,-1.91 0.68,-2.8 0.71,-3.51 0.69,-4.11 0.67,-4.63 0.65,-5.07 0.62,-5.47 1.19,-11.89 1.12,-12.73 1.09,-13.19 1.07,-13.22 1.09,-12.83 1.13,-12.05 0.59,-5.62 0.62,-5.26 0.64,-4.87 0.68,-4.43 0.72,-3.97 0.77,-3.46 0.86,-2.98 1.02,-2.54 c 0.16,-0.4 0.37,-0.78 0.62,-1.14 l 0.85,-1.21 c 0.58,-0.83 1.36,-1.5 2.28,-1.94 l 0.89,-0.43 c 1.39,-0.68 2.98,-0.78 4.44,-0.31 l 0.89,0.29 c 0.96,0.31 1.82,0.86 2.51,1.59 l 0.84,0.9 c 0.35,0.37 0.65,0.79 0.9,1.23 l 0.79,1.47 1.1,2.74 0.86,2.94 0.76,3.23 0.69,3.55 0.64,3.86 1.18,8.5 1.09,9.46 1.03,10.05 1,10.33 1,10.3 1.01,9.95 1.07,9.26 1.14,8.24 0.59,3.56 0.61,3.2 0.64,2.74 0.64,2.2 0.6,1.57 0.47,0.77 -0.85,-1.21 0.84,0.93 -2.4,-1.6 0.89,0.32 -3.42,-0.18 0.9,-0.22 -2.19,1.05 0.84,-0.64 -1.12,1.12 0.79,-1.04 -0.53,0.82 0.75,-1.39 -0.35,0.77 1.37,-3.77 1.05,-4.31 1.04,-5.46 0.99,-6.27 0.95,-6.8 0.92,-7.08 0.92,-7.13 0.95,-6.95 1,-6.56 1.1,-5.96 1.23,-5.2 1.46,-4.32 1.02,-2.15 c 0.14,-0.28 0.3,-0.55 0.49,-0.81 l 0.75,-1.03 c 0.31,-0.42 0.67,-0.81 1.08,-1.14 l 0.79,-0.64 c 0.66,-0.53 1.42,-0.91 2.24,-1.13 l 0.84,-0.22 c 1.05,-0.27 2.14,-0.25 3.18,0.05 l 1.68,0.49 c 0.84,0.25 1.6,0.67 2.26,1.24 l 1.59,1.39 c 0.36,0.32 0.68,0.68 0.96,1.08 l 1.51,2.16 1.84,3.5 1.57,3.75 1.43,3.98 2.59,8.25 2.46,8.08 1.18,3.55 1.16,3.08 1.1,2.41 0.96,1.5 -0.85,-1.1 1.34,1.36 -2.4,-1.48 1.4,0.45 -2.82,-0.21 1.35,-0.22 -1.52,0.47 1.21,-0.56 -1.54,1.04 2.08,-1.94 -0.93,1.1 1.77,-2.7 1.34,-2.58 1.66,-3.09 2.17,-3.22 c 0.29,-0.42 0.63,-0.81 1.02,-1.14 l 2.18,-1.88 c 0.48,-0.42 1.03,-0.75 1.62,-1 l 1.27,-0.52 c 0.48,-0.2 0.99,-0.34 1.5,-0.4 l 1.43,-0.19 12.89,-0.05 c 3.29,0 5.96,2.67 5.96,5.96 0,3.29 -2.67,5.96 -5.96,5.96 l -11.35,-0.05 -1.42,0.18 1.5,-0.4 -1.28,0.53 1.62,-1 -2.18,1.88 1.02,-1.14 -1.49,2.11 -1.63,3.03 -1.91,3.56 -1.77,2.69 c -0.26,0.4 -0.57,0.77 -0.92,1.1 l -2.09,1.93 c -0.46,0.43 -0.98,0.78 -1.55,1.04 l -1.21,0.56 c -0.48,0.23 -1,0.38 -1.52,0.47 l -1.35,0.23 c -0.95,0.16 -1.91,0.08 -2.82,-0.21 l -1.4,-0.45 c -0.91,-0.3 -1.73,-0.8 -2.41,-1.48 l -1.34,-1.36 c -0.32,-0.33 -0.61,-0.7 -0.85,-1.1 l -1.63,-2.76 -1.41,-3.15 -1.31,-3.52 -1.27,-3.82 -2.43,-7.98 -2.45,-7.83 -1.21,-3.42 -1.17,-2.88 -1.02,-2.11 -1.5,-2.16 0.96,1.08 -1.58,-1.4 2.25,1.24 -1.69,-0.49 3.18,0.04 -0.84,0.22 2.24,-1.12 -0.8,0.64 1.09,-1.15 -0.75,1.03 0.49,-0.81 -0.38,0.65 -1.14,3.22 -1.1,4.59 -1.04,5.61 -0.97,6.36 -0.94,6.87 -0.93,7.14 -0.93,7.18 -0.98,7.02 -1.06,6.66 -1.18,6.11 -1.4,5.47 -1.37,3.78 c -0.1,0.26 -0.22,0.52 -0.35,0.77 l -0.74,1.4 c -0.16,0.28 -0.33,0.56 -0.53,0.82 l -0.79,1.03 c -0.33,0.42 -0.7,0.79 -1.12,1.11 l -0.84,0.64 c -0.65,0.5 -1.4,0.85 -2.19,1.05 l -0.89,0.22 c -1.13,0.27 -2.32,0.21 -3.42,-0.17 l -0.89,-0.32 c -0.92,-0.33 -1.75,-0.88 -2.41,-1.6 l -0.84,-0.93 c -0.34,-0.36 -0.62,-0.77 -0.86,-1.2 l -1.12,-2.22 -0.9,-2.47 -0.8,-2.8 -0.72,-3.16 -0.67,-3.51 -0.64,-3.87 -1.17,-8.5 -1.08,-9.42 -1.03,-10.01 -0.99,-10.3 -0.99,-10.27 -1.01,-9.9 -1.06,-9.18 -1.13,-8.18 -0.59,-3.55 -0.6,-3.13 -0.6,-2.63 -0.56,-2.02 -0.42,-1.26 -0.8,-1.47 0.9,1.24 -0.85,-0.9 2.51,1.59 -0.9,-0.3 4.44,-0.3 -0.9,0.43 2.29,-1.94 -0.85,1.21 0.62,-1.13 -0.59,1.32 -0.66,2.24 -0.68,2.99 -0.66,3.63 -0.64,4.19 -0.62,4.69 -0.6,5.13 -0.59,5.49 -1.12,11.93 -1.08,12.8 -1.08,13.23 -1.09,13.25 -1.13,12.88 -1.21,12.05 -0.64,5.62 -0.68,5.29 -0.71,4.9 -0.76,4.48 -0.83,4.05 -0.92,3.62 -1.12,3.26 -0.9,1.91 c -0.2,0.42 -0.45,0.83 -0.74,1.19 l -0.95,1.19 c -0.64,0.79 -1.47,1.41 -2.42,1.79 l -1,0.41 c -1.54,0.62 -3.28,0.57 -4.78,-0.14 l -0.99,-0.47 c -0.98,-0.46 -1.81,-1.18 -2.41,-2.08 l -0.91,-1.36 c -0.25,-0.38 -0.46,-0.78 -0.62,-1.2 l -1.03,-2.83 -0.85,-3.35 -0.74,-3.93 -0.67,-4.52 -0.61,-5.07 -0.56,-5.57 -0.52,-6.04 -0.48,-6.45 -0.9,-13.83 -0.84,-14.77 -0.83,-15.2 -0.87,-15.18 -0.96,-14.66 -1.1,-13.69 -0.62,-6.3 -0.66,-5.85 -0.71,-5.33 -0.76,-4.73 -0.81,-4.04 -0.81,-3.22 -0.71,-2.23 -1.13,-2.2 0.87,1.26 -1.23,-1.36 2.46,1.64 -1.33,-0.47 h 3.95 l -1.34,0.47 2.4,-1.57 -1.26,1.37 0.86,-1.21 -0.86,1.48 -0.98,2.54 -1,3.41 -0.96,4.16 -0.94,4.81 -0.89,5.4 -0.85,5.9 -0.82,6.32 -1.55,13.77 -1.44,14.77 -1.37,15.28 -1.34,15.31 -1.33,14.86 -1.37,13.92 -0.71,6.48 -0.73,6.09 -0.77,5.63 -0.81,5.14 -0.86,4.62 -0.95,4.08 -1.11,3.62 -0.94,2.21 c -0.17,0.41 -0.39,0.8 -0.65,1.16 l -0.99,1.37 c -0.61,0.85 -1.43,1.52 -2.38,1.95 l -1.05,0.47 c -1.45,0.66 -3.11,0.7 -4.59,0.13 l -1.02,-0.39 c -0.98,-0.38 -1.85,-1.01 -2.51,-1.84 l -0.92,-1.15 c -0.32,-0.39 -0.58,-0.83 -0.79,-1.29 l -1.1,-2.6 -0.86,-2.96 -0.72,-3.4 -0.62,-3.88 -0.54,-4.32 -0.48,-4.73 -0.41,-5.11 -0.37,-5.47 -0.61,-11.7 -0.5,-12.45 -0.44,-12.83 -0.42,-12.8 -0.47,-12.36 -0.56,-11.54 -0.32,-5.3 -0.37,-4.93 -0.41,-4.49 -0.46,-3.98 -0.49,-3.39 -0.51,-2.69 -0.45,-1.81 -0.77,-1.85 0.73,1.28 -0.86,-1.15 2.5,1.94 -0.95,-0.39 4.04,0.19 -0.97,0.3 2.36,-1.39 -0.92,0.88 0.97,-1.2 -0.87,1.42 0.4,-0.77 -0.64,1.42 -0.67,2.03 -0.68,2.56 -0.66,3.01 -0.63,3.35 -1.23,7.78 -1.15,8.77 -1.1,9.44 -1.07,9.79 -1.08,9.83 -1.12,9.58 -1.19,9.03 -1.29,8.15 -0.71,3.72 -0.76,3.43 -0.84,3.16 -0.96,2.88 -0.83,1.94 c -0.11,0.26 -0.24,0.51 -0.38,0.76 l -0.88,1.44 c -0.26,0.43 -0.57,0.82 -0.92,1.17 l -0.93,0.91 c -0.63,0.62 -1.4,1.09 -2.24,1.38 l -0.98,0.34 c -0.99,0.33 -2.04,0.41 -3.06,0.21 l -0.95,-0.18 c -0.84,-0.16 -1.63,-0.49 -2.32,-0.98 l -0.86,-0.61 c -0.49,-0.35 -0.93,-0.77 -1.29,-1.24 l -0.77,-1 c -0.23,-0.31 -0.43,-0.63 -0.61,-0.97 l -0.68,-1.37 c -0.14,-0.3 -0.27,-0.6 -0.36,-0.92 l -1.3,-4.4 -0.92,-5.22 -0.69,-5.96 -0.52,-6.55 -0.42,-6.93 -0.37,-7.11 -0.38,-7.05 -0.45,-6.76 -0.55,-6.21 -0.69,-5.38 -0.79,-4.16 -1.27,-3.77 0.41,0.95 -0.76,-1.4 0.64,0.95 -0.86,-1.03 1.27,1.14 -0.95,-0.64 2.11,0.89 -1.06,-0.22 2.74,-0.08 -2.13,0.57 2.25,-1.16 -1.94,1.6 1.06,-1.13 -1.78,2.48 0.47,-0.76 -1.42,2.73 -1.42,3.51 -1.36,4.02 -2.71,9.22 -2.71,9.43 -1.46,4.52 -1.61,4.25 -1.92,3.95 -1.63,2.49 c -0.28,0.42 -0.61,0.81 -0.98,1.15 l -1.76,1.6 c -0.66,0.6 -1.46,1.05 -2.32,1.3 l -1.92,0.57 c -0.83,0.24 -1.7,0.3 -2.55,0.18 l -1.83,-0.27 c -0.62,-0.09 -1.23,-0.28 -1.79,-0.56 l -1.52,-0.76 c -0.5,-0.25 -0.96,-0.57 -1.37,-0.94 l -1.29,-1.18 c -0.29,-0.27 -0.55,-0.56 -0.78,-0.87 l -1.12,-1.53 c -0.17,-0.23 -0.32,-0.47 -0.45,-0.72 l -2.09,-3.92 -1.84,-3.72 -3.02,-4.39 0.65,0.8 -1.98,-2.02 0.66,0.57 -2.39,-1.8 0.79,0.5 -2.87,-1.53 0.86,0.38 -3.43,-1.18 0.84,0.22 -3.29,-0.66 -4.75,-0.27 c -3.29,-0.19 -5.8,-3 -5.61,-6.29 0.18,-3.28 3,-5.8 6.28,-5.61 z m 265.83,-23.84 23.84,29.79 -23.84,29.79 z"
           fill="#0000ff"
           id="path2-6"
           style="fill:#ff7f0e;fill-opacity:1" /></g></g></g></svg>
