<svg width="2034" height="1228" xmlns="http://www.w3.org/2000/svg" xmlns:xlink="http://www.w3.org/1999/xlink" xml:space="preserve" overflow="hidden"><defs><clipPath id="clip0"><rect x="5868" y="1357" width="153" height="153"/></clipPath><clipPath id="clip1"><rect x="5868" y="1357" width="153" height="153"/></clipPath><clipPath id="clip2"><rect x="5868" y="1357" width="153" height="153"/></clipPath></defs><g transform="translate(-4355 -580)"><path d="M4392 1194.5C4367.15 860.777 4608.06 633.778 4968.48 618 5040.43 600.857 5092.47 643.238 5186.92 618 5281.36 592.762 5304.02 636.83 5381.09 618 5458.17 599.17 5481.42 624.56 5567.17 618 5652.92 611.44 5693.11 641.279 5777.52 618 6135.27 536.979 6330.41 872.496 6354 1194.5L6354 1194.5C6318.94 1545.9 6090.68 1721.2 5777.52 1771 5720.04 1796.97 5660.15 1753.68 5559.08 1771 5458.01 1788.32 5463 1766.64 5373 1771 5283 1775.36 5234.73 1748.72 5170.74 1771 5106.75 1793.28 5039.25 1747.38 4968.48 1771 4695.4 1840.78 4420.63 1547.97 4392 1194.5Z" fill="#DEEBF7" fill-rule="evenodd"/><path d="M4392 1194.5C4398.61 870.318 4656.62 587.312 4968.48 618 5030.04 599.343 5078.34 634.677 5154.56 618 5230.77 601.323 5272.03 624.183 5356.82 618 5441.61 611.817 5456.7 637.431 5550.99 618 5645.28 598.569 5722.34 624.431 5777.52 618 6147.25 656.155 6353.05 898.571 6354 1194.5L6354 1194.5C6401.33 1484.81 6071.8 1809.27 5777.52 1771 5718.11 1790.09 5660.95 1760.68 5583.35 1771 5505.76 1781.32 5460.77 1766.36 5381.09 1771 5301.41 1775.64 5268.39 1766.24 5203.1 1771 5137.81 1775.76 5042.01 1761.29 4968.48 1771 4631.79 1807.74 4338.79 1442.29 4392 1194.5Z" stroke="#7FC0FB" stroke-width="59.5833" stroke-miterlimit="8" fill="none" fill-rule="evenodd"/><g><g><g><path d="M5914.14 812.298 5890.64 836.694 5893.51 839.385 5913.96 820.908 5934.59 839.385 5937.46 836.694 5914.14 812.298Z"/><path d="M5922 915.445C5921.1 918.495 5921.1 918.853 5918.59 922.262 5914.64 927.284 5906.75 934.998 5898.32 934.998 5890.96 934.998 5886.84 928.361 5886.84 917.777 5886.84 907.911 5892.4 887.82 5895.81 880.285 5901.91 867.728 5910.34 861.27 5917.33 861.27 5929.17 861.27 5931.5 875.98 5931.5 877.415 5931.5 877.595 5930.97 879.926 5930.79 880.285L5922 915.445ZM5933.48 869.522C5931.5 864.858 5926.66 857.683 5917.33 857.683 5897.06 857.683 5875.18 883.873 5875.18 910.422 5875.18 928.181 5885.58 938.586 5897.78 938.586 5907.65 938.586 5916.08 930.872 5921.1 924.953 5922.89 935.536 5931.32 938.586 5936.71 938.586 5942.09 938.586 5946.39 935.357 5949.62 928.899 5952.49 922.8 5955 911.857 5955 911.14 5955 910.243 5954.29 909.525 5953.21 909.525 5951.6 909.525 5951.42 910.422 5950.7 913.113 5948.01 923.697 5944.6 934.998 5937.24 934.998 5932.04 934.998 5931.68 930.334 5931.68 926.746 5931.68 922.62 5932.22 920.647 5933.84 913.651 5935.09 909.166 5935.99 905.22 5937.42 900.018 5944.06 873.11 5945.68 866.652 5945.68 865.576 5945.68 863.064 5943.7 861.091 5941.01 861.091 5935.27 861.091 5933.84 867.369 5933.48 869.522Z"/><path d="M6007.32 886.325C6007.32 883.933 6007.32 882.976 6004.81 882.976 6003.26 882.976 6003.14 883.096 6001.94 884.77L5963.79 940.141 5963.79 944.087 5997.52 944.087 5997.52 954.013C5997.52 958.438 5997.16 959.754 5987.95 959.754L5985.2 959.754 5985.2 963.7C5995.36 963.342 5995.6 963.342 6002.42 963.342 6009.24 963.342 6009.48 963.342 6019.64 963.7L6019.64 959.754 6016.89 959.754C6007.68 959.754 6007.32 958.438 6007.32 954.013L6007.32 944.087 6020 944.087 6020 940.141 6007.32 940.141 6007.32 886.325ZM5998.35 896.012 5998.35 940.141 5967.98 940.141 5998.35 896.012Z"/></g></g></g><path d="M5373.05 925.584 5642.21 1194.74 5373.05 1463.9 5103.9 1194.74Z" stroke="#595959" stroke-width="27.5" stroke-miterlimit="8" fill="none" fill-rule="evenodd"/><path d="M0 11.3334C-2.00518e-15 5.07415 5.07413-4.01039e-15 11.3334-4.01039e-15L492.667 0C498.926-2.00519e-15 504 5.07415 504 11.3334L504 56.6666C504 62.9259 498.926 68.0001 492.667 68.0001L11.3334 68.0001C5.07413 68.0001 0 62.9259 0 56.6666Z" stroke="#595959" stroke-width="4.58333" stroke-miterlimit="8" fill="#595959" fill-rule="evenodd" transform="matrix(1 0 0 -1 5119.5 1231.5)"/><path d="M7.29204-7.29204 279.891 265.307C283.918 269.334 283.918 275.863 279.891 279.891 275.863 283.918 269.334 283.918 265.307 279.891L-7.29204 7.29204C-11.3193 3.26476-11.3193-3.26476-7.29204-7.29204-3.26476-11.3193 3.26476-11.3193 7.29204-7.29204ZM287.183 243.43 338.227 338.227 243.43 287.183Z" fill="#FF6600" transform="matrix(1 0 0 -1 4878.5 1678.73)"/><path d="M7.29204-7.29204 279.891 265.307C283.918 269.334 283.918 275.863 279.891 279.891 275.863 283.918 269.334 283.918 265.307 279.891L-7.29204 7.29204C-11.3193 3.26476-11.3193-3.26476-7.29204-7.29204-3.26476-11.3193 3.26476-11.3193 7.29204-7.29204ZM287.183 243.43 338.227 338.227 243.43 287.183Z" fill="#FF6600" transform="matrix(1 0 0 -1 5534.5 1039.73)"/><path d="M4881.79 712.208 5154.39 984.807C5158.42 988.834 5158.42 995.363 5154.39 999.391 5150.36 1003.42 5143.83 1003.42 5139.81 999.391L4867.21 726.792C4863.18 722.765 4863.18 716.235 4867.21 712.208 4871.24 708.181 4877.76 708.181 4881.79 712.208ZM5161.68 962.93 5212.73 1057.73 5117.93 1006.68Z" fill="#FF6600"/><path d="M5537.79 1350.21 5810.39 1622.81C5814.42 1626.83 5814.42 1633.36 5810.39 1637.39 5806.36 1641.42 5799.83 1641.42 5795.81 1637.39L5523.21 1364.79C5519.18 1360.76 5519.18 1354.24 5523.21 1350.21 5527.24 1346.18 5533.76 1346.18 5537.79 1350.21ZM5817.68 1600.93 5868.73 1695.73 5773.93 1644.68Z" fill="#FF6600"/><g><g><g><path d="M44.1232-124.986 20.5308-100.493 23.4123-97.7913 43.943-116.341 64.6538-97.7913 67.5354-100.493 44.1232-124.986Z" transform="matrix(1 0 0 1 4730.08 936.985)"/><path d="M54.2085-21.4312C53.308-18.3697 53.308-18.0095 50.7867-14.5877 46.8245-9.54501 38.9005-1.80095 30.4359-1.80095 23.0521-1.80095 18.9099-8.46444 18.9099-19.09 18.9099-28.9952 24.4928-49.1658 27.9146-56.7298 34.0379-69.3364 42.5023-75.8198 49.526-75.8198 61.4122-75.8198 63.7534-61.052 63.7534-59.6113 63.7534-59.4311 63.2131-57.09 63.0331-56.7298L54.2085-21.4312ZM65.7345-67.5354C63.7534-72.2178 58.8909-79.4217 49.526-79.4217 29.1753-79.4217 7.20378-53.1278 7.20378-26.4739 7.20378-8.64453 17.6493 1.80095 29.8957 1.80095 39.8008 1.80095 48.2652-5.94312 53.308-11.8862 55.1089-1.26066 63.5733 1.80095 68.9762 1.80095 74.3789 1.80095 78.7013-1.44075 81.9429-7.92415 84.8244-14.0474 87.3459-25.0332 87.3459-25.7535 87.3459-26.6539 86.6255-27.3744 85.5449-27.3744 83.924-27.3744 83.7439-26.4739 83.0235-23.7724 80.3222-13.1469 76.9004-1.80095 69.5165-1.80095 64.2936-1.80095 63.9335-6.4834 63.9335-10.0853 63.9335-14.2275 64.4738-16.2086 66.0947-23.2322 67.3553-27.7346 68.2558-31.6966 69.6965-36.9194 76.36-63.9335 77.9809-70.4169 77.9809-71.4975 77.9809-74.0188 75.9998-75.9998 73.2984-75.9998 67.5354-75.9998 66.0947-69.6965 65.7345-67.5354Z" transform="matrix(1 0 0 1 4727.88 936.985)"/><path d="M37.6997-76.4801C37.6997-79.7217 37.4597-79.8419 34.2179-79.8419 29.2954-75.0394 22.932-72.1579 11.526-72.1579L11.526-68.1957C14.7677-68.1957 21.2511-68.1957 28.2149-71.4375L28.2149-9.84516C28.2149-5.40283 27.8547-3.96208 16.4485-3.96208L12.2464-3.96208 12.2464 0C17.1691-0.360184 27.4945-0.360184 32.8972-0.360184 38.3001-0.360184 48.7456-0.360184 53.6681 0L53.6681-3.96208 49.466-3.96208C38.06-3.96208 37.6997-5.40283 37.6997-9.84516L37.6997-76.4801Z" transform="matrix(1 0 0 1 4820.45 963.999)"/></g></g></g><g><g><g><path d="M44.1232-124.986 20.5308-100.493 23.4123-97.7913 43.943-116.341 64.6538-97.7913 67.5354-100.493 44.1232-124.986Z" transform="matrix(1 0 0 1 4728.28 1498.98)"/><path d="M54.2085-21.4312C53.308-18.3697 53.308-18.0095 50.7867-14.5877 46.8245-9.54501 38.9005-1.80095 30.4359-1.80095 23.0521-1.80095 18.9099-8.46444 18.9099-19.09 18.9099-28.9952 24.4928-49.1658 27.9146-56.7298 34.0379-69.3364 42.5023-75.8198 49.526-75.8198 61.4122-75.8198 63.7534-61.052 63.7534-59.6113 63.7534-59.4311 63.2131-57.09 63.0331-56.7298L54.2085-21.4312ZM65.7345-67.5354C63.7534-72.2178 58.8909-79.4217 49.526-79.4217 29.1753-79.4217 7.20378-53.1278 7.20378-26.4739 7.20378-8.64453 17.6493 1.80095 29.8957 1.80095 39.8008 1.80095 48.2652-5.94312 53.308-11.8862 55.1089-1.26066 63.5733 1.80095 68.9762 1.80095 74.3789 1.80095 78.7013-1.44075 81.9429-7.92415 84.8244-14.0474 87.3459-25.0332 87.3459-25.7535 87.3459-26.6539 86.6255-27.3744 85.5449-27.3744 83.924-27.3744 83.7439-26.4739 83.0235-23.7724 80.3222-13.1469 76.9004-1.80095 69.5165-1.80095 64.2936-1.80095 63.9335-6.4834 63.9335-10.0853 63.9335-14.2275 64.4738-16.2086 66.0947-23.2322 67.3553-27.7346 68.2558-31.6966 69.6965-36.9194 76.36-63.9335 77.9809-70.4169 77.9809-71.4975 77.9809-74.0188 75.9998-75.9998 73.2984-75.9998 67.5354-75.9998 66.0947-69.6965 65.7345-67.5354Z" transform="matrix(1 0 0 1 4726.08 1498.98)"/><path d="M33.8577-24.4928C35.7787-26.2939 40.8214-30.2559 42.7424-31.9368 50.1864-38.7804 57.27-45.3838 57.27-56.3095 57.27-70.5971 45.2637-79.8419 30.2559-79.8419 15.8484-79.8419 6.36334-68.9161 6.36334-58.2305 6.36334-52.3475 11.0458-51.507 12.7267-51.507 15.2479-51.507 18.97-53.308 18.97-57.8703 18.97-64.1136 12.9668-64.1136 11.526-64.1136 15.0079-72.8783 23.0521-75.8798 28.9352-75.8798 40.1011-75.8798 45.864-66.3948 45.864-56.3095 45.864-43.823 37.0994-34.6982 22.932-20.1706L7.80409-4.56239C6.36334-3.2417 6.36334-3.00158 6.36334 0L53.7882 0 57.27-21.4913 53.5481-21.4913C53.1879-19.09 52.2274-13.0869 50.7867-10.8057 50.0663-9.84516 40.9415-9.84516 39.0205-9.84516L17.6493-9.84516 33.8577-24.4928Z" transform="matrix(1 0 0 1 4818.65 1526)"/></g></g></g><g clip-path="url(#clip0)"><g clip-path="url(#clip1)"><g clip-path="url(#clip2)"><path d="M5915.34 1357 5892.13 1381.09 5894.97 1383.75 5915.16 1365.5 5935.53 1383.75 5938.37 1381.09 5915.34 1357Z"/><path d="M5923.1 1458.86C5922.21 1461.88 5922.21 1462.23 5919.73 1465.6 5915.83 1470.56 5908.04 1478.17 5899.71 1478.17 5892.45 1478.17 5888.37 1471.62 5888.37 1461.17 5888.37 1451.42 5893.87 1431.58 5897.23 1424.14 5903.26 1411.74 5911.58 1405.36 5918.49 1405.36 5930.18 1405.36 5932.49 1419.89 5932.49 1421.31 5932.49 1421.48 5931.95 1423.79 5931.78 1424.14L5923.1 1458.86ZM5934.44 1413.51C5932.49 1408.91 5927.7 1401.82 5918.49 1401.82 5898.47 1401.82 5876.86 1427.68 5876.86 1453.9 5876.86 1471.44 5887.13 1481.72 5899.18 1481.72 5908.92 1481.72 5917.25 1474.1 5922.21 1468.25 5923.98 1478.71 5932.31 1481.72 5937.62 1481.72 5942.94 1481.72 5947.19 1478.53 5950.38 1472.15 5953.21 1466.13 5955.69 1455.32 5955.69 1454.61 5955.69 1453.73 5954.99 1453.02 5953.92 1453.02 5952.33 1453.02 5952.15 1453.9 5951.44 1456.56 5948.78 1467.01 5945.42 1478.17 5938.16 1478.17 5933.02 1478.17 5932.66 1473.57 5932.66 1470.02 5932.66 1465.95 5933.19 1464 5934.79 1457.09 5936.03 1452.66 5936.92 1448.77 5938.33 1443.63 5944.89 1417.06 5946.48 1410.68 5946.48 1409.61 5946.48 1407.13 5944.53 1405.19 5941.88 1405.19 5936.21 1405.19 5934.79 1411.39 5934.44 1413.51Z"/><path d="M5990.71 1467.07C6000.04 1467.07 6005.95 1473.92 6005.95 1486.32 6005.95 1501.09 5997.56 1505.46 5991.3 1505.46 5984.81 1505.46 5975.95 1503.09 5971.81 1496.83 5976.07 1496.83 5979.02 1494.12 5979.02 1490.22 5979.02 1486.44 5976.3 1483.73 5972.52 1483.73 5969.33 1483.73 5966.03 1485.73 5966.03 1490.46 5966.03 1501.68 5978.07 1509 5991.54 1509 6007.25 1509 6018.23 1498.13 6018.23 1486.32 6018.23 1476.52 6010.43 1467.55 5998.39 1464.95 6007.72 1461.64 6014.69 1453.61 6014.69 1444.16 6014.69 1434.71 6004.06 1427.98 5991.77 1427.98 5979.14 1427.98 5969.57 1434.83 5969.57 1443.81 5969.57 1448.18 5972.52 1450.07 5975.59 1450.07 5979.25 1450.07 5981.62 1447.47 5981.62 1444.04 5981.62 1439.67 5977.84 1438.02 5975.24 1437.9 5980.2 1431.41 5989.29 1431.05 5991.42 1431.05 5994.49 1431.05 6003.47 1432 6003.47 1444.16 6003.47 1452.43 6000.04 1457.39 5998.39 1459.28 5994.84 1462.94 5992.13 1463.18 5984.92 1463.65 5982.68 1463.77 5981.73 1463.88 5981.73 1465.42 5981.73 1467.07 5982.8 1467.07 5984.81 1467.07L5990.71 1467.07Z"/></g></g></g></g></svg>