<svg width="3315" height="1259" xmlns="http://www.w3.org/2000/svg" xmlns:xlink="http://www.w3.org/1999/xlink" xml:space="preserve" overflow="hidden"><g transform="translate(-8163 -455)"><path d="M8194 1086C8169.15 752.567 8410.02 525.764 8770.37 510 8834.66 492.243 8949.26 519.771 9022.28 510 9095.3 500.23 9151.55 523.096 9211.21 510 9270.88 496.905 9324.58 523.771 9379.16 510 9433.73 496.229 9525.73 521.157 9610.07 510 9694.41 498.843 9710.65 514.994 9799.01 510 9887.36 505.007 9947.46 529.917 10050.9 510 10154.4 490.083 10138.3 516.024 10218.9 510 10299.4 503.976 10364.6 517.941 10470.8 510 10576.9 502.059 10570.1 526.66 10617.7 510 10665.3 493.34 10771.4 536.745 10869.6 510 11236.5 582.193 11453.9 849.891 11446 1086L11446 1086C11491.3 1473.84 11216.6 1697.05 10869.6 1662 10777.9 1675.14 10766.6 1640.88 10680.7 1662 10594.8 1683.12 10542.9 1637.26 10470.8 1662 10398.7 1686.74 10324.9 1637.3 10239.9 1662 10154.8 1686.7 10105.2 1661.16 10008.9 1662 9912.69 1662.84 9881.33 1655.84 9778.01 1662 9674.7 1668.16 9687.12 1650.08 9631.07 1662 9575.01 1673.92 9534.42 1651.91 9463.13 1662 9391.83 1672.09 9308.95 1658.63 9232.21 1662 9155.47 1665.37 9132.29 1639.81 9043.27 1662 8954.26 1684.19 8829.57 1639.98 8770.37 1662 8459.45 1619.73 8138.97 1401 8194 1086Z" fill="#DEEBF7" fill-rule="evenodd"/><path d="M8194 1086C8250.06 816.114 8449.06 519.027 8770.37 510 8823.2 493.701 8879.83 520.759 8980.3 510 9080.76 499.241 9098.98 526.686 9148.24 510 9197.5 493.314 9321.29 534.099 9400.15 510 9479 485.902 9507.93 518.708 9589.08 510 9670.23 501.292 9693.09 514.07 9736.03 510 9778.96 505.93 9906.34 524.798 9966.95 510 10027.6 495.202 10084.3 521.215 10134.9 510 10185.5 498.785 10290.3 515.055 10365.8 510 10441.4 504.945 10508.7 539.178 10617.7 510 10726.8 480.822 10749.9 526.686 10869.6 510 11236.1 523.795 11437.8 741.223 11446 1086L11446 1086C11468.2 1404.82 11229.1 1704.65 10869.6 1662 10827.1 1673.28 10764.4 1642.95 10659.7 1662 10555 1681.05 10499.8 1652.55 10449.8 1662 10399.7 1671.45 10346.6 1642.45 10281.8 1662 10217.1 1681.55 10103.9 1634.1 10029.9 1662 9955.93 1689.9 9900.37 1643.79 9820 1662 9739.63 1680.21 9640.33 1632.76 9568.09 1662 9495.85 1691.24 9398.31 1638.29 9337.17 1662 9276.03 1685.71 9201.32 1648.34 9148.24 1662 9095.15 1675.66 8854.04 1653.82 8770.37 1662 8454.09 1754.81 8203.64 1395.48 8194 1086Z" stroke="#7FC0FB" stroke-width="59.5833" stroke-miterlimit="8" fill="none" fill-rule="evenodd"/><path d="M9174.65 816.859 9443.81 1086.01 9174.65 1355.17 8905.5 1086.01Z" stroke="#595959" stroke-width="27.5" stroke-miterlimit="8" fill="none" fill-rule="evenodd"/><path d="M0 11.3334C-1.98529e-15 5.07412 5.07412-3.97059e-15 11.3334-3.97059e-15L487.667 0C493.926-3.97059e-15 499 5.07412 499 11.3334L499 56.6663C499 62.9256 493.926 67.9997 487.667 67.9997L11.3334 67.9997C5.07412 67.9997 0 62.9256 0 56.6663Z" stroke="#595959" stroke-width="4.58333" stroke-miterlimit="8" fill="#595959" fill-rule="evenodd" transform="matrix(1 0 0 -1 8921.5 1122.5)"/><path d="M7.29204-7.29204 279.891 265.307C283.918 269.334 283.918 275.863 279.891 279.891 275.863 283.918 269.334 283.918 265.307 279.891L-7.29204 7.29204C-11.3193 3.26476-11.3193-3.26476-7.29204-7.29204-3.26476-11.3193 3.26476-11.3193 7.29204-7.29204ZM287.183 243.43 338.227 338.227 243.43 287.183Z" fill="#FF6600" transform="matrix(1 0 0 -1 8679.5 1569.73)"/><path d="M8682.79 603.208 8955.39 875.807C8959.42 879.834 8959.42 886.363 8955.39 890.391 8951.36 894.418 8944.83 894.418 8940.81 890.391L8668.21 617.792C8664.18 613.765 8664.18 607.235 8668.21 603.208 8672.24 599.181 8678.76 599.181 8682.79 603.208ZM8962.68 853.93 9013.73 948.727 8918.93 897.683Z" fill="#FF6600"/><path d="M7.29204-7.29204 279.891 265.307C283.918 269.334 283.918 275.863 279.891 279.891 275.863 283.918 269.334 283.918 265.307 279.891L-7.29204 7.29204C-11.3193 3.26476-11.3193-3.26476-7.29204-7.29204-3.26476-11.3193 3.26476-11.3193 7.29204-7.29204ZM287.183 243.43 338.227 338.227 243.43 287.183Z" fill="#FF6600" transform="matrix(1 0 0 -1 9301.5 892.727)"/><path d="M7.29204-7.29204 279.891 265.307C283.918 269.334 283.918 275.863 279.891 279.891 275.863 283.918 269.334 283.918 265.307 279.891L-7.29204 7.29204C-11.3193 3.26476-11.3193-3.26476-7.29204-7.29204-3.26476-11.3193 3.26476-11.3193 7.29204-7.29204ZM287.183 243.43 338.227 338.227 243.43 287.183Z" fill="#FF6600" transform="matrix(1 0 0 -1 9356.5 947.727)"/><path d="M10500.4 817.943 10769.6 1087.1 10500.4 1356.25 10231.3 1087.1Z" stroke="#595959" stroke-width="27.5" stroke-miterlimit="8" fill="none" fill-rule="evenodd"/><path d="M0 11.5004C-1.98529e-15 5.14891 5.14889-1.9853e-15 11.5004-3.9706e-15L487.5 0C493.851-3.9706e-15 499 5.14891 499 11.5004L499 57.4993C499 63.8508 493.851 68.9997 487.5 68.9997L11.5004 68.9997C5.14889 68.9997 0 63.8508 0 57.4993Z" stroke="#595959" stroke-width="4.58333" stroke-miterlimit="8" fill="#595959" fill-rule="evenodd" transform="matrix(1 0 0 -1 10247.5 1124.5)"/><path d="M7.29204-7.29204 279.891 265.307C283.918 269.334 283.918 275.863 279.891 279.891 275.863 283.918 269.334 283.918 265.307 279.891L-7.29204 7.29204C-11.3193 3.26476-11.3193-3.26476-7.29204-7.29204-3.26476-11.3193 3.26476-11.3193 7.29204-7.29204ZM287.183 243.43 338.227 338.227 243.43 287.183Z" fill="#FF6600" transform="matrix(1 0 0 -1 10005.5 1570.73)"/><path d="M10008.8 604.208 10281.4 876.807C10285.4 880.834 10285.4 887.363 10281.4 891.391 10277.4 895.418 10270.8 895.418 10266.8 891.391L9994.21 618.792C9990.18 614.765 9990.18 608.235 9994.21 604.208 9998.24 600.181 10004.8 600.181 10008.8 604.208ZM10288.7 854.93 10339.7 949.727 10244.9 898.683Z" fill="#FF6600"/><path d="M10636.8 1269.21 10909.4 1541.81C10913.4 1545.83 10913.4 1552.36 10909.4 1556.39 10905.4 1560.42 10898.8 1560.42 10894.8 1556.39L10622.2 1283.79C10618.2 1279.76 10618.2 1273.24 10622.2 1269.21 10626.2 1265.18 10632.8 1265.18 10636.8 1269.21ZM10916.7 1519.93 10967.7 1614.73 10872.9 1563.68Z" fill="#FF6600"/><path d="M10691.8 1214.21 10964.4 1486.81C10968.4 1490.83 10968.4 1497.36 10964.4 1501.39 10960.4 1505.42 10953.8 1505.42 10949.8 1501.39L10677.2 1228.79C10673.2 1224.76 10673.2 1218.24 10677.2 1214.21 10681.2 1210.18 10687.8 1210.18 10691.8 1214.21ZM10971.7 1464.93 11022.7 1559.73 10927.9 1508.68Z" fill="#FF6600"/></g></svg>