<svg width="7770" height="1435" xmlns="http://www.w3.org/2000/svg" xmlns:xlink="http://www.w3.org/1999/xlink" xml:space="preserve" overflow="hidden"><g transform="translate(-566 -620)"><path d="M597 1237.5C572.155 903.777 812.987 676.778 1173.28 661 1266.11 657.753 1314.36 693.947 1452.19 661 1590.02 628.054 1586.53 662.37 1624.95 661 1663.37 659.63 1718.7 663.286 1762.32 661 1805.95 658.714 1912.08 679.043 2005.85 661 2099.62 642.958 2104.04 673.011 2178.61 661 2253.18 648.989 2358.6 667.041 2457.52 661 2556.45 654.959 2544.2 666.753 2594.9 661 2645.6 655.247 2736.17 691.614 2873.81 661 3011.46 630.386 2953.9 669.268 2975.8 661 2997.7 652.732 3096.44 678.842 3183.95 661 3271.45 643.158 3337.19 684.372 3392.09 661 3446.99 637.628 3498.69 663.267 3564.85 661 3631.01 658.733 3723.66 665.631 3843.76 661 3963.87 656.369 4016.48 682.348 4122.68 661 4228.87 639.652 4201.53 677.053 4260.05 661 4318.57 644.947 4364.43 683.086 4468.19 661 4571.96 638.914 4652.99 667.223 4711.72 661 5014.75 615.143 5377.9 900.837 5288 1237.5L5288 1237.5C5319.61 1561.03 5004.75 1815.04 4711.72 1814 4661.38 1824.93 4635.6 1813.65 4574.35 1814 4513.09 1814.35 4446.4 1795.07 4401.59 1814 4356.78 1832.93 4310.92 1805.4 4264.21 1814 4217.5 1822.6 4102.77 1794.47 4020.68 1814 3938.6 1833.53 3885.62 1802.13 3812.54 1814 3739.46 1825.87 3683.77 1810.56 3604.4 1814 3525.02 1817.44 3461.72 1806.03 3325.48 1814 3189.25 1821.97 3154.69 1805.58 3081.96 1814 3009.22 1822.42 3015.14 1812.31 2979.97 1814 2944.8 1815.69 2851.32 1793.32 2807.21 1814 2763.09 1834.68 2610.52 1801.7 2528.29 1814 2446.07 1826.3 2411.44 1798.59 2320.15 1814 2228.86 1829.41 2171.51 1787.93 2076.62 1814 1981.74 1840.07 1976.16 1798.69 1903.86 1814 1831.56 1829.31 1790.7 1798.5 1695.72 1814 1600.73 1829.5 1543.01 1813.85 1416.81 1814 1290.6 1814.15 1239.13 1808.28 1173.28 1814 846.827 1787.32 619.24 1556.6 597 1237.5Z" fill="#DEEBF7" fill-rule="evenodd"/><path d="M597 1237.5C638.177 961.791 864.948 670.521 1173.28 661 1255.34 651.013 1273.6 663.654 1346.04 661 1418.47 658.346 1418.49 662.845 1448.03 661 1477.57 659.155 1584.52 673.027 1656.17 661 1727.83 648.973 1740.66 661.556 1793.55 661 1846.43 660.444 1920.53 664.98 2001.69 661 2082.85 657.02 2155.06 674.334 2209.83 661 2264.61 647.667 2352.38 663.629 2417.98 661 2483.58 658.371 2564.34 685.354 2626.12 661 2687.9 636.646 2743.94 676.692 2798.88 661 2853.82 645.308 2939.12 682.911 3042.41 661 3145.69 639.089 3147.93 672.538 3250.55 661 3353.18 649.462 3444.81 693.906 3529.47 661 3614.12 628.094 3740.82 683.42 3808.38 661 3875.94 638.58 3944.38 684.757 4051.91 661 4159.44 637.243 4232.19 682.41 4295.43 661 4358.68 639.59 4610.68 702.255 4711.72 661 5077.78 699.493 5241.88 932.006 5288 1237.5L5288 1237.5C5268.03 1562.9 5028.7 1749.39 4711.72 1814 4624.88 1821.33 4596.5 1812.85 4503.58 1814 4410.66 1815.15 4314.89 1789.55 4224.67 1814 4134.44 1838.45 4054.73 1787.81 3981.14 1814 3907.55 1840.19 3882.08 1802.75 3843.76 1814 3805.45 1825.25 3698.36 1800.39 3600.23 1814 3502.11 1827.61 3512.97 1795.31 3427.48 1814 3341.98 1832.69 3322.67 1804.41 3290.1 1814 3257.53 1823.59 3216.9 1809.74 3188.11 1814 3159.32 1818.26 3119.21 1807.71 3050.73 1814 2982.26 1820.29 2943.17 1807.05 2913.36 1814 2883.55 1820.95 2764.26 1805.27 2705.22 1814 2646.17 1822.73 2596.61 1789.8 2497.07 1814 2397.53 1838.2 2398.85 1797.97 2324.31 1814 2249.78 1830.03 2144.36 1798.22 2045.4 1814 1946.44 1829.78 1946.26 1812.93 1908.03 1814 1869.79 1815.07 1734.33 1797.22 1629.11 1814 1523.9 1830.78 1523.39 1800.73 1491.74 1814 1460.08 1827.27 1290.77 1791.44 1173.28 1814 899.856 1743.57 621.19 1547.82 597 1237.5Z" stroke="#7FC0FB" stroke-width="59.5833" stroke-miterlimit="8" fill="none" fill-rule="evenodd"/><text font-family="CMU Sans Serif,CMU Sans Serif_MSFontService,sans-serif" font-weight="500" font-size="303" transform="matrix(1 0 0 1 1740.04 1305)">+</text><text font-family="CMU Typewriter Text,CMU Typewriter Text_MSFontService,sans-serif" font-weight="200" font-size="403" transform="matrix(1 0 0 1 2835.62 1319)">-</text><text font-family="CMU Typewriter Text,CMU Typewriter Text_MSFontService,sans-serif" font-weight="200" font-size="403" transform="matrix(1 0 0 1 3887.75 1331)">-</text><path d="M5836 1237.5C5811.16 903.777 6051.99 676.778 6412.28 661 6457.91 639.706 6546.68 663.423 6625.21 661 6703.73 658.577 6745.23 670.107 6798.91 661 6852.58 651.893 6882 675.619 6959.54 661 7037.08 646.382 7089.82 670.005 7159.39 661 7228.96 651.995 7279.8 673.511 7333.09 661 7386.38 648.489 7469.2 683.275 7546.02 661 7622.83 638.725 7641.65 675.03 7719.72 661 8004.71 716.071 8269.91 888.837 8296 1237.5L8296 1237.5C8300.61 1587.8 7997.82 1811.7 7719.72 1814 7682.13 1825.85 7585.1 1807.21 7546.02 1814 7506.93 1820.79 7457.03 1806.27 7398.46 1814 7339.9 1821.73 7270.19 1808.13 7211.69 1814 7153.18 1819.87 7107.12 1805.34 7024.91 1814 6942.69 1822.66 6924.1 1812.95 6838.13 1814 6752.17 1815.05 6700.63 1792.99 6638.28 1814 6575.94 1835.01 6470.97 1801.12 6412.28 1814 6061.99 1832.71 5830.71 1565.36 5836 1237.5Z" fill="#DEEBF7" fill-rule="evenodd"/><path d="M5836 1237.5C5887.33 957.263 6093.07 683.463 6412.28 661 6470.17 637.669 6522.96 671.279 6625.21 661 6727.45 650.721 6772.62 676.549 6838.13 661 6903.64 645.452 6981.82 668.694 7024.91 661 7067.99 653.306 7163.12 675.123 7198.61 661 7234.1 646.877 7294.64 664.953 7346.17 661 7397.69 657.047 7438.38 670.476 7493.72 661 7549.06 651.524 7637.68 670.105 7719.72 661 8054.97 718.211 8333.74 908.007 8296 1237.5L8296 1237.5C8360.06 1541.84 8091.89 1858.42 7719.72 1814 7615.35 1816.95 7603.8 1788.6 7506.79 1814 7409.79 1839.4 7377.49 1809.54 7306.94 1814 7236.4 1818.46 7207.05 1804.27 7146.31 1814 7085.58 1823.73 7045.15 1810.44 6998.76 1814 6952.37 1817.56 6896.36 1808.24 6838.13 1814 6779.9 1819.76 6732.65 1812.96 6638.28 1814 6543.91 1815.04 6497.62 1806.22 6412.28 1814 6116.25 1814.71 5877.18 1598.58 5836 1237.5Z" stroke="#7FC0FB" stroke-width="59.5833" stroke-miterlimit="8" fill="none" fill-rule="evenodd"/><text font-family="CMU Typewriter Text,CMU Typewriter Text_MSFontService,sans-serif" font-weight="200" font-size="403" transform="matrix(1 0 0 1 6950.95 1323)">-</text><text font-family="CMU Typewriter Text,CMU Typewriter Text_MSFontService,sans-serif" font-weight="200" font-size="633" transform="matrix(1 0 0 1 5398.95 1437)">=</text><path d="M1062.5 1209.83C1062.5 1203.57 1067.57 1198.5 1073.83 1198.5L1550.17 1198.5C1556.43 1198.5 1561.5 1203.57 1561.5 1209.83L1561.5 1255.17C1561.5 1261.43 1556.43 1266.5 1550.17 1266.5L1073.83 1266.5C1067.57 1266.5 1062.5 1261.43 1062.5 1255.17Z" stroke="#595959" stroke-width="4.58333" stroke-miterlimit="8" fill="#595959" fill-rule="evenodd"/><path d="M946.792 820.208 1679.35 1552.77C1683.38 1556.79 1683.38 1563.32 1679.35 1567.35 1675.32 1571.38 1668.79 1571.38 1664.77 1567.35L932.208 834.792C928.181 830.765 928.181 824.235 932.208 820.208 936.235 816.181 942.765 816.181 946.792 820.208ZM1686.64 1530.89 1737.69 1625.69 1642.89 1574.64Z" fill="#FF6600"/><path d="M7.29204-7.29204 299.164 284.58C303.191 288.607 303.191 295.137 299.164 299.164 295.137 303.191 288.607 303.191 284.58 299.164L-7.29204 7.29204C-11.3193 3.26476-11.3193-3.26476-7.29204-7.29204-3.26476-11.3193 3.26476-11.3193 7.29204-7.29204ZM306.456 262.703 357.5 357.5 262.703 306.456Z" fill="#FF6600" transform="matrix(1 0 0 -1 954.5 1622)"/><path d="M1325.79 1279.21 1598.39 1551.81C1602.42 1555.83 1602.42 1562.36 1598.39 1566.39 1594.36 1570.42 1587.83 1570.42 1583.81 1566.39L1311.21 1293.79C1307.18 1289.76 1307.18 1283.24 1311.21 1279.21 1315.24 1275.18 1321.76 1275.18 1325.79 1279.21ZM1605.68 1529.93 1656.73 1624.73 1561.93 1573.68Z" fill="#FF6600"/><path d="M0 11.3334C-1.98529e-15 5.07412 5.07412-3.97059e-15 11.3334-3.97059e-15L487.667 0C493.926-3.97059e-15 499 5.07412 499 11.3334L499 56.6663C499 62.9256 493.926 67.9997 487.667 67.9997L11.3334 67.9997C5.07412 67.9997 0 62.9256 0 56.6663Z" stroke="#595959" stroke-width="4.58333" stroke-miterlimit="8" fill="#595959" fill-rule="evenodd" transform="matrix(1 0 0 -1 4272.5 1277.5)"/><path d="M7.29204-7.29204 739.851 725.267C743.879 729.295 743.879 735.824 739.851 739.851 735.824 743.879 729.295 743.879 725.267 739.851L-7.29204 7.29204C-11.3193 3.26476-11.3193-3.26476-7.29204-7.29204-3.26476-11.3193 3.26476-11.3193 7.29204-7.29204ZM747.143 703.391 798.188 798.188 703.391 747.143Z" fill="#FF6600" transform="matrix(1 0 0 -1 4148.5 1648.69)"/><path d="M4170.79 847.208 4462.66 1139.08C4466.69 1143.11 4466.69 1149.64 4462.66 1153.66 4458.64 1157.69 4452.11 1157.69 4448.08 1153.66L4156.21 861.792C4152.18 857.765 4152.18 851.235 4156.21 847.208 4160.24 843.181 4166.76 843.181 4170.79 847.208ZM4469.96 1117.2 4521 1212 4426.2 1160.96Z" fill="#FF6600"/><path d="M7.29204-7.29204 279.891 265.307C283.918 269.334 283.918 275.863 279.891 279.891 275.863 283.918 269.334 283.918 265.307 279.891L-7.29204 7.29204C-11.3193 3.26476-11.3193-3.26476-7.29204-7.29204-3.26476-11.3193 3.26476-11.3193 7.29204-7.29204ZM287.183 243.43 338.227 338.227 243.43 287.183Z" fill="#FF6600" transform="matrix(1 0 0 -1 4527.5 1189.73)"/><path d="M2162.5 1216C2162.5 1209.65 2167.65 1204.5 2174 1204.5L2650 1204.5C2656.35 1204.5 2661.5 1209.65 2661.5 1216L2661.5 1262C2661.5 1268.35 2656.35 1273.5 2650 1273.5L2174 1273.5C2167.65 1273.5 2162.5 1268.35 2162.5 1262Z" stroke="#595959" stroke-width="4.58333" stroke-miterlimit="8" fill="#595959" fill-rule="evenodd"/><path d="M2052.79 840.208 2344.66 1132.08C2348.69 1136.11 2348.69 1142.64 2344.66 1146.66 2340.64 1150.69 2334.11 1150.69 2330.08 1146.66L2038.21 854.792C2034.18 850.765 2034.18 844.235 2038.21 840.208 2042.24 836.18 2048.76 836.18 2052.79 840.208ZM2351.96 1110.2 2403 1205 2308.2 1153.96Z" fill="#FF6600"/><path d="M2413.21 1186.71 2705.08 894.836C2709.11 890.809 2715.64 890.809 2719.66 894.836 2723.69 898.863 2723.69 905.393 2719.66 909.42L2427.79 1201.29C2423.76 1205.32 2417.24 1205.32 2413.21 1201.29 2409.18 1197.26 2409.18 1190.74 2413.21 1186.71ZM2683.2 887.544 2778 836.5 2726.96 931.296Z" fill="#FF6600"/><path d="M7.29204-7.29204 299.164 284.58C303.191 288.607 303.191 295.137 299.164 299.164 295.137 303.191 288.607 303.191 284.58 299.164L-7.29204 7.29204C-11.3193 3.26476-11.3193-3.26476-7.29204-7.29204-3.26476-11.3193 3.26476-11.3193 7.29204-7.29204ZM306.456 262.703 357.5 357.5 262.703 306.456Z" fill="#FF6600" transform="matrix(1 0 0 -1 2045.5 1631)"/><path d="M7.29204-7.29204 299.164 284.58C303.191 288.607 303.191 295.137 299.164 299.164 295.137 303.191 288.607 303.191 284.58 299.164L-7.29204 7.29204C-11.3193 3.26476-11.3193-3.26476-7.29204-7.29204-3.26476-11.3193 3.26476-11.3193 7.29204-7.29204ZM306.456 262.703 357.5 357.5 262.703 306.456Z" fill="#FF6600" transform="matrix(6.12323e-17 1 1 -6.12323e-17 2420.5 1284.5)"/><path d="M3223.5 1214.83C3223.5 1208.57 3228.57 1203.5 3234.83 1203.5L3711.17 1203.5C3717.43 1203.5 3722.5 1208.57 3722.5 1214.83L3722.5 1260.17C3722.5 1266.43 3717.43 1271.5 3711.17 1271.5L3234.83 1271.5C3228.57 1271.5 3223.5 1266.43 3223.5 1260.17Z" stroke="#595959" stroke-width="4.58333" stroke-miterlimit="8" fill="#595959" fill-rule="evenodd"/><path d="M3082.79 833.208 3815.35 1565.77C3819.38 1569.79 3819.38 1576.32 3815.35 1580.35 3811.32 1584.38 3804.79 1584.38 3800.77 1580.35L3068.21 847.792C3064.18 843.765 3064.18 837.235 3068.21 833.208 3072.24 829.181 3078.76 829.181 3082.79 833.208ZM3822.64 1543.89 3873.69 1638.69 3778.89 1587.64Z" fill="#FF6600"/><path d="M7.29204-7.29204 739.851 725.267C743.879 729.295 743.879 735.824 739.851 739.851 735.824 743.879 729.295 743.879 725.267 739.851L-7.29204 7.29204C-11.3193 3.26476-11.3193-3.26476-7.29204-7.29204-3.26476-11.3193 3.26476-11.3193 7.29204-7.29204ZM747.143 703.391 798.188 798.188 703.391 747.143Z" fill="#FF6600" transform="matrix(1 0 0 -1 3075.5 1636.69)"/><path d="M0 11.3335C-1.98131e-15 5.07419 5.07419-1.98131e-15 11.3335-3.96263e-15L486.666 0C492.926-3.96263e-15 498 5.07419 498 11.3335L498 56.6665C498 62.9259 492.926 68.0001 486.666 68.0001L11.3335 68.0001C5.07419 68.0001 0 62.9259 0 56.6665Z" stroke="#595959" stroke-width="4.58333" stroke-miterlimit="8" fill="#595959" fill-rule="evenodd" transform="matrix(1 0 0 -1 7336.5 1268.5)"/><path d="M7.29204-7.29204 739.851 725.267C743.879 729.295 743.879 735.824 739.851 739.851 735.824 743.879 729.295 743.879 725.267 739.851L-7.29204 7.29204C-11.3193 3.26476-11.3193-3.26476-7.29204-7.29204-3.26476-11.3193 3.26476-11.3193 7.29204-7.29204ZM747.143 703.391 798.188 798.188 703.391 747.143Z" fill="#FF6600" transform="matrix(1 0 0 -1 7212.5 1639.69)"/><path d="M7234.79 837.208 7526.66 1129.08C7530.69 1133.11 7530.69 1139.64 7526.66 1143.66 7522.64 1147.69 7516.11 1147.69 7512.08 1143.66L7220.21 851.792C7216.18 847.765 7216.18 841.235 7220.21 837.208 7224.24 833.181 7230.76 833.181 7234.79 837.208ZM7533.96 1107.2 7585 1202 7490.2 1150.96Z" fill="#FF6600"/><path d="M7.29204-7.29204 279.891 265.307C283.918 269.334 283.918 275.863 279.891 279.891 275.863 283.918 269.334 283.918 265.307 279.891L-7.29204 7.29204C-11.3193 3.26476-11.3193-3.26476-7.29204-7.29204-3.26476-11.3193 3.26476-11.3193 7.29204-7.29204ZM287.183 243.43 338.227 338.227 243.43 287.183Z" fill="#FF6600" transform="matrix(1 0 0 -1 7591.5 1180.73)"/><path d="M6298.5 1207.83C6298.5 1201.57 6303.57 1196.5 6309.83 1196.5L6786.17 1196.5C6792.43 1196.5 6797.5 1201.57 6797.5 1207.83L6797.5 1253.17C6797.5 1259.43 6792.43 1264.5 6786.17 1264.5L6309.83 1264.5C6303.57 1264.5 6298.5 1259.43 6298.5 1253.17Z" stroke="#595959" stroke-width="4.58333" stroke-miterlimit="8" fill="#595959" fill-rule="evenodd"/><path d="M6181.79 817.208 6914.35 1549.77C6918.38 1553.79 6918.38 1560.32 6914.35 1564.35 6910.32 1568.38 6903.79 1568.38 6899.77 1564.35L6167.21 831.792C6163.18 827.765 6163.18 821.235 6167.21 817.208 6171.24 813.181 6177.76 813.181 6181.79 817.208ZM6921.64 1527.89 6972.69 1622.69 6877.89 1571.64Z" fill="#FF6600"/><path d="M7.29204-7.29204 299.164 284.58C303.191 288.607 303.191 295.137 299.164 299.164 295.137 303.191 288.607 303.191 284.58 299.164L-7.29204 7.29204C-11.3193 3.26476-11.3193-3.26476-7.29204-7.29204-3.26476-11.3193 3.26476-11.3193 7.29204-7.29204ZM306.456 262.703 357.5 357.5 262.703 306.456Z" fill="#FF6600" transform="matrix(1 0 0 -1 6189.5 1620)"/><path d="M6560.79 1277.21 6833.39 1549.81C6837.42 1553.83 6837.42 1560.36 6833.39 1564.39 6829.36 1568.42 6822.83 1568.42 6818.81 1564.39L6546.21 1291.79C6542.18 1287.76 6542.18 1281.24 6546.21 1277.21 6550.24 1273.18 6556.76 1273.18 6560.79 1277.21ZM6840.68 1527.93 6891.73 1622.73 6796.93 1571.68Z" fill="#FF6600"/></g></svg>